<svg version="1.1" viewBox="0.0 0.0 673.8950131233596 309.0997375328084" fill="none" stroke="none" stroke-linecap="square" stroke-miterlimit="10" xmlns:xlink="http://www.w3.org/1999/xlink" xmlns="http://www.w3.org/2000/svg"><clipPath id="p.0"><path d="m0 0l673.895 0l0 309.09973l-673.895 0l0 -309.09973z" clip-rule="nonzero"/></clipPath><g clip-path="url(#p.0)"><path fill="#000000" fill-opacity="0.0" d="m0 0l673.895 0l0 309.09973l-673.895 0z" fill-rule="evenodd"/><path fill="#000000" fill-opacity="0.0" d="m22.278215 92.38845l296.25983 0l0 150.1181l-296.25983 0z" fill-rule="evenodd"/><path fill="#000000" fill-opacity="0.0" d="m318.53806 92.38845l50.039368 -50.039368l0 150.1181l-50.039368 50.039368z" fill-rule="evenodd"/><path fill="#000000" fill-opacity="0.0" d="m22.278215 92.38845l50.039375 -50.039368l296.25983 0l-50.039368 50.039368z" fill-rule="evenodd"/><path fill="#000000" fill-opacity="0.0" d="m22.278215 92.38845l50.039375 -50.039368l296.25983 0l0 150.1181l-50.039368 50.039368l-296.25983 0zm0 0l296.25983 0l50.039368 -50.039368m-50.039368 50.039368l0 150.1181" fill-rule="evenodd"/><path fill="#000000" fill-opacity="0.2" d="m318.53806 92.38845l50.039368 -50.039368l0 150.1181l-50.039368 50.039368z" fill-rule="evenodd"/><path fill="#ffffff" fill-opacity="0.2" d="m22.278215 92.38845l50.039375 -50.039368l296.25983 0l-50.039368 50.039368z" fill-rule="evenodd"/><path stroke="#000000" stroke-width="1.0" stroke-linejoin="round" stroke-linecap="butt" d="m22.278215 92.38845l50.039375 -50.039368l296.25983 0l0 150.1181l-50.039368 50.039368l-296.25983 0zm0 0l296.25983 0l50.039368 -50.039368m-50.039368 50.039368l0 150.1181" fill-rule="evenodd"/><path fill="#d9ead3" d="m45.29134 161.19948l83.6378 0l0 24.330704l-83.6378 0z" fill-rule="evenodd"/><path fill="#adbba8" d="m128.92914 161.19948l8.1102295 -8.110245l0 24.330719l-8.1102295 8.1102295z" fill-rule="evenodd"/><path fill="#e0eedb" d="m45.29134 161.19948l8.110233 -8.110245l83.637794 0l-8.1102295 8.110245z" fill-rule="evenodd"/><path fill="#000000" fill-opacity="0.0" d="m45.29134 161.19948l8.110233 -8.110245l83.637794 0l0 24.330719l-8.1102295 8.1102295l-83.6378 0zm0 0l83.6378 0l8.1102295 -8.110245m-8.1102295 8.110245l0 24.330704" fill-rule="evenodd"/><path stroke="#000000" stroke-width="1.0" stroke-linejoin="round" stroke-linecap="butt" d="m45.29134 161.19948l8.110233 -8.110245l83.637794 0l0 24.330719l-8.1102295 8.1102295l-83.6378 0zm0 0l83.6378 0l8.1102295 -8.110245m-8.1102295 8.110245l0 24.330704" fill-rule="evenodd"/><path fill="#000000" d="m57.68055 171.32608l0 -1.015625l1.09375 0l0 1.015625l-1.09375 0zm0 4.71875l0 -4.15625l1.09375 0l0 4.15625l-1.09375 0zm1.6914062 0l1.5 -2.140625l-1.4375 -2.015625l1.34375 0l0.734375 1.140625l0.765625 -1.140625l1.296875 0l-1.40625 1.96875l1.53125 2.1875l-1.34375 0l-0.84375 -1.28125l-0.859375 1.28125l-1.28125 0zm4.9804688 -4.71875l0 -1.015625l1.09375 0l0 1.015625l-1.09375 0zm0 4.71875l0 -4.15625l1.09375 0l0 4.15625l-1.09375 0zm3.0351562 -2.890625l-0.984375 -0.171875q0.15625 -0.609375 0.5625 -0.890625q0.421875 -0.296875 1.234375 -0.296875q0.734375 0 1.09375 0.1875q0.359375 0.171875 0.5 0.4375q0.140625 0.265625 0.140625 0.984375l0 1.28125q0 0.546875 0.046875 0.8125q0.046875 0.25 0.203125 0.546875l-1.09375 0q-0.046875 -0.109375 -0.109375 -0.328125q-0.015625 -0.09375 -0.03125 -0.125q-0.28125 0.265625 -0.609375 0.40625q-0.3125 0.140625 -0.671875 0.140625q-0.640625 0 -1.015625 -0.34375q-0.375 -0.359375 -0.375 -0.890625q0 -0.34375 0.171875 -0.609375q0.171875 -0.28125 0.46875 -0.421875q0.3125 -0.15625 0.875 -0.265625q0.765625 -0.140625 1.0625 -0.265625l0 -0.109375q0 -0.328125 -0.15625 -0.453125q-0.15625 -0.140625 -0.578125 -0.140625q-0.296875 0 -0.46875 0.125q-0.15625 0.109375 -0.265625 0.390625zm1.46875 0.890625q-0.203125 0.078125 -0.671875 0.171875q-0.453125 0.09375 -0.59375 0.1875q-0.203125 0.15625 -0.203125 0.390625q0 0.234375 0.171875 0.40625q0.171875 0.15625 0.4375 0.15625q0.296875 0 0.5625 -0.1875q0.203125 -0.15625 0.265625 -0.359375q0.03125 -0.140625 0.03125 -0.546875l0 -0.21875zm2.0429688 0.46875l0 -1.09375l2.15625 0l0 1.09375l-2.15625 0zm6.3984375 -1.390625l-1.078125 0.1875q-0.046875 -0.3125 -0.25 -0.46875q-0.1875 -0.171875 -0.5 -0.171875q-0.40625 0 -0.65625 0.28125q-0.234375 0.28125 -0.234375 0.9375q0 0.75 0.234375 1.0625q0.25 0.296875 0.671875 0.296875q0.3125 0 0.515625 -0.171875q0.203125 -0.1875 0.28125 -0.625l1.078125 0.1875q-0.171875 0.734375 -0.65625 1.125q-0.46875 0.375 -1.265625 0.375q-0.90625 0 -1.453125 -0.578125q-0.546875 -0.578125 -0.546875 -1.59375q0 -1.015625 0.546875 -1.59375q0.546875 -0.578125 1.46875 -0.578125q0.765625 0 1.203125 0.328125q0.453125 0.328125 0.640625 1.0zm0.71484375 1.390625l0 -1.09375l2.15625 0l0 1.09375l-2.15625 0zm6.3984375 -1.390625l-1.078125 0.1875q-0.046875 -0.3125 -0.25 -0.46875q-0.1875 -0.171875 -0.5 -0.171875q-0.40625 0 -0.65625 0.28125q-0.234375 0.28125 -0.234375 0.9375q0 0.75 0.234375 1.0625q0.25 0.296875 0.671875 0.296875q0.3125 0 0.515625 -0.171875q0.203125 -0.1875 0.28125 -0.625l1.078125 0.1875q-0.171875 0.734375 -0.65625 1.125q-0.46875 0.375 -1.265625 0.375q-0.90625 0 -1.453125 -0.578125q-0.546875 -0.578125 -0.546875 -1.59375q0 -1.015625 0.546875 -1.59375q0.546875 -0.578125 1.46875 -0.578125q0.765625 0 1.203125 0.328125q0.453125 0.328125 0.640625 1.0zm0.58984375 0.78125q0 -0.546875 0.265625 -1.046875q0.265625 -0.515625 0.75 -0.78125q0.5 -0.28125 1.109375 -0.28125q0.953125 0 1.546875 0.625q0.609375 0.609375 0.609375 1.53125q0 0.953125 -0.609375 1.578125q-0.609375 0.609375 -1.53125 0.609375q-0.578125 0 -1.09375 -0.25q-0.515625 -0.265625 -0.78125 -0.765625q-0.265625 -0.5 -0.265625 -1.21875zm1.125 0.0625q0 0.625 0.28125 0.953125q0.296875 0.328125 0.734375 0.328125q0.421875 0 0.703125 -0.328125q0.296875 -0.328125 0.296875 -0.953125q0 -0.609375 -0.296875 -0.9375q-0.28125 -0.328125 -0.703125 -0.328125q-0.4375 0 -0.734375 0.328125q-0.28125 0.328125 -0.28125 0.9375zm7.7773438 2.078125l-1.09375 0l0 -2.125q0 -0.671875 -0.078125 -0.859375q-0.0625 -0.203125 -0.21875 -0.3125q-0.15625 -0.109375 -0.375 -0.109375q-0.296875 0 -0.53125 0.15625q-0.21875 0.15625 -0.296875 0.421875q-0.078125 0.25 -0.078125 0.953125l0 1.875l-1.109375 0l0 -4.15625l1.03125 0l0 0.609375q0.53125 -0.703125 1.359375 -0.703125q0.359375 0 0.65625 0.140625q0.3125 0.125 0.46875 0.328125q0.15625 0.203125 0.203125 0.46875q0.0625 0.25 0.0625 0.734375l0 2.578125zm3.0273438 -4.15625l0 0.875l-0.75 0l0 1.671875q0 0.515625 0.015625 0.609375q0.015625 0.078125 0.09375 0.140625q0.078125 0.046875 0.1875 0.046875q0.15625 0 0.4375 -0.109375l0.09375 0.84375q-0.375 0.171875 -0.859375 0.171875q-0.296875 0 -0.546875 -0.09375q-0.234375 -0.109375 -0.34375 -0.265625q-0.109375 -0.15625 -0.15625 -0.421875q-0.03125 -0.203125 -0.03125 -0.78125l0 -1.8125l-0.5 0l0 -0.875l0.5 0l0 -0.8125l1.109375 -0.640625l0 1.453125l0.75 0zm1.8046875 4.15625l-1.09375 0l0 -4.15625l1.015625 0l0 0.59375q0.265625 -0.421875 0.46875 -0.546875q0.21875 -0.140625 0.484375 -0.140625q0.375 0 0.71875 0.21875l-0.34375 0.953125q-0.28125 -0.1875 -0.515625 -0.1875q-0.234375 0 -0.390625 0.140625q-0.15625 0.125 -0.25 0.453125q-0.09375 0.328125 -0.09375 1.390625l0 1.28125zm1.8164062 -2.140625q0 -0.546875 0.265625 -1.046875q0.265625 -0.515625 0.75 -0.78125q0.5 -0.28125 1.109375 -0.28125q0.953125 0 1.546875 0.625q0.609375 0.609375 0.609375 1.53125q0 0.953125 -0.609375 1.578125q-0.609375 0.609375 -1.53125 0.609375q-0.578125 0 -1.09375 -0.25q-0.515625 -0.265625 -0.78125 -0.765625q-0.265625 -0.5 -0.265625 -1.21875zm1.125 0.0625q0 0.625 0.28125 0.953125q0.296875 0.328125 0.734375 0.328125q0.421875 0 0.703125 -0.328125q0.296875 -0.328125 0.296875 -0.953125q0 -0.609375 -0.296875 -0.9375q-0.28125 -0.328125 -0.703125 -0.328125q-0.4375 0 -0.734375 0.328125q-0.28125 0.328125 -0.28125 0.9375zm4.0117188 2.078125l0 -5.734375l1.09375 0l0 5.734375l-1.09375 0zm2.2226562 0l0 -5.734375l1.09375 0l0 5.734375l-1.09375 0zm4.6288986 -1.328125l1.09375 0.1875q-0.21875 0.609375 -0.671875 0.921875q-0.453125 0.3125 -1.140625 0.3125q-1.078125 0 -1.59375 -0.703125q-0.421875 -0.578125 -0.421875 -1.4375q0 -1.03125 0.53125 -1.609375q0.546875 -0.59375 1.375 -0.59375q0.921875 0 1.453125 0.625q0.546875 0.609375 0.515625 1.859375l-2.75 0q0.015625 0.5 0.265625 0.765625q0.265625 0.265625 0.640625 0.265625q0.25 0 0.421875 -0.140625q0.1875 -0.140625 0.28125 -0.453125zm0.0625 -1.109375q-0.015625 -0.46875 -0.25 -0.71875q-0.234375 -0.25 -0.578125 -0.25q-0.359375 0 -0.59375 0.265625q-0.234375 0.265625 -0.21875 0.703125l1.640625 0zm3.0273438 2.4375l-1.09375 0l0 -4.15625l1.015625 0l0 0.59375q0.265625 -0.421875 0.46875 -0.546875q0.21875 -0.140625 0.484375 -0.140625q0.375 0 0.71875 0.21875l-0.34375 0.953125q-0.28125 -0.1875 -0.515625 -0.1875q-0.234375 0 -0.390625 0.140625q-0.15625 0.125 -0.25 0.453125q-0.09375 0.328125 -0.09375 1.390625l0 1.28125z" fill-rule="nonzero"/><path fill="#d9ead3" d="m162.29396 128.75853l104.708664 0l0 24.330704l-104.708664 0z" fill-rule="evenodd"/><path fill="#adbba8" d="m267.00262 128.75853l8.1102295 -8.110237l0 24.330711l-8.1102295 8.1102295z" fill-rule="evenodd"/><path fill="#e0eedb" d="m162.29396 128.75853l8.110245 -8.110237l104.70865 0l-8.1102295 8.110237z" fill-rule="evenodd"/><path fill="#000000" fill-opacity="0.0" d="m162.29396 128.75853l8.110245 -8.110237l104.70865 0l0 24.330711l-8.1102295 8.1102295l-104.708664 0zm0 0l104.708664 0l8.1102295 -8.110237m-8.1102295 8.110237l0 24.330704" fill-rule="evenodd"/><path stroke="#000000" stroke-width="1.0" stroke-linejoin="round" stroke-linecap="butt" d="m162.29396 128.75853l8.110245 -8.110237l104.70865 0l0 24.330711l-8.1102295 8.1102295l-104.708664 0zm0 0l104.708664 0l8.1102295 -8.110237m-8.1102295 8.110237l0 24.330704" fill-rule="evenodd"/><path fill="#000000" d="m174.994 138.88513l0 -1.015625l1.09375 0l0 1.015625l-1.09375 0zm0 4.71875l0 -4.15625l1.09375 0l0 4.15625l-1.09375 0zm1.6914062 0l1.5 -2.140625l-1.4375 -2.015625l1.34375 0l0.734375 1.140625l0.765625 -1.140625l1.296875 0l-1.40625 1.96875l1.53125 2.1875l-1.34375 0l-0.84375 -1.28125l-0.859375 1.28125l-1.28125 0zm4.9804688 -4.71875l0 -1.015625l1.09375 0l0 1.015625l-1.09375 0zm0 4.71875l0 -4.15625l1.09375 0l0 4.15625l-1.09375 0zm3.0351562 -2.890625l-0.984375 -0.171875q0.15625 -0.609375 0.5625 -0.890625q0.421875 -0.296875 1.234375 -0.296875q0.734375 0 1.09375 0.1875q0.359375 0.171875 0.5 0.4375q0.140625 0.265625 0.140625 0.984375l0 1.28125q0 0.546875 0.046875 0.8125q0.046875 0.25 0.203125 0.546875l-1.09375 0q-0.046875 -0.109375 -0.109375 -0.328125q-0.015625 -0.09375 -0.03125 -0.125q-0.28125 0.265625 -0.609375 0.40625q-0.3125 0.140625 -0.671875 0.140625q-0.640625 0 -1.015625 -0.34375q-0.375 -0.359375 -0.375 -0.890625q0 -0.34375 0.171875 -0.609375q0.171875 -0.28125 0.46875 -0.421875q0.3125 -0.15625 0.875 -0.265625q0.765625 -0.140625 1.0625 -0.265625l0 -0.109375q0 -0.328125 -0.15625 -0.453125q-0.15625 -0.140625 -0.578125 -0.140625q-0.296875 0 -0.46875 0.125q-0.15625 0.109375 -0.265625 0.390625zm1.46875 0.890625q-0.203125 0.078125 -0.671875 0.171875q-0.453125 0.09375 -0.59375 0.1875q-0.203125 0.15625 -0.203125 0.390625q0 0.234375 0.171875 0.40625q0.171875 0.15625 0.4375 0.15625q0.296875 0 0.5625 -0.1875q0.203125 -0.15625 0.265625 -0.359375q0.03125 -0.140625 0.03125 -0.546875l0 -0.21875zm2.0429688 0.46875l0 -1.09375l2.15625 0l0 1.09375l-2.15625 0zm6.3984375 -1.390625l-1.078125 0.1875q-0.046875 -0.3125 -0.25 -0.46875q-0.1875 -0.171875 -0.5 -0.171875q-0.40625 0 -0.65625 0.28125q-0.234375 0.28125 -0.234375 0.9375q0 0.75 0.234375 1.0625q0.25 0.296875 0.671875 0.296875q0.3125 0 0.515625 -0.171875q0.203125 -0.1875 0.28125 -0.625l1.078125 0.1875q-0.171875 0.734375 -0.65625 1.125q-0.46875 0.375 -1.265625 0.375q-0.90625 0 -1.453125 -0.578125q-0.546875 -0.578125 -0.546875 -1.59375q0 -1.015625 0.546875 -1.59375q0.546875 -0.578125 1.46875 -0.578125q0.765625 0 1.203125 0.328125q0.453125 0.328125 0.640625 1.0zm0.71484375 1.390625l0 -1.09375l2.15625 0l0 1.09375l-2.15625 0zm4.6953125 -2.625l0 0.875l-0.75 0l0 1.671875q0 0.515625 0.015625 0.609375q0.015625 0.078125 0.09375 0.140625q0.078125 0.046875 0.1875 0.046875q0.15625 0 0.4375 -0.109375l0.09375 0.84375q-0.375 0.171875 -0.859375 0.171875q-0.296875 0 -0.546875 -0.09375q-0.234375 -0.109375 -0.34375 -0.265625q-0.109375 -0.15625 -0.15625 -0.421875q-0.03125 -0.203125 -0.03125 -0.78125l0 -1.8125l-0.5 0l0 -0.875l0.5 0l0 -0.8125l1.109375 -0.640625l0 1.453125l0.75 0zm1.8046875 4.15625l-1.09375 0l0 -4.15625l1.015625 0l0 0.59375q0.265625 -0.421875 0.46875 -0.546875q0.21875 -0.140625 0.484375 -0.140625q0.375 0 0.71875 0.21875l-0.34375 0.953125q-0.28125 -0.1875 -0.515625 -0.1875q-0.234375 0 -0.390625 0.140625q-0.15625 0.125 -0.25 0.453125q-0.09375 0.328125 -0.09375 1.390625l0 1.28125zm2.8789062 -2.890625l-0.984375 -0.171875q0.15625 -0.609375 0.5625 -0.890625q0.421875 -0.296875 1.234375 -0.296875q0.734375 0 1.09375 0.1875q0.359375 0.171875 0.5 0.4375q0.140625 0.265625 0.140625 0.984375l0 1.28125q0 0.546875 0.046875 0.8125q0.046875 0.25 0.203125 0.546875l-1.09375 0q-0.046875 -0.109375 -0.109375 -0.328125q-0.015625 -0.09375 -0.03125 -0.125q-0.28125 0.265625 -0.609375 0.40625q-0.3125 0.140625 -0.671875 0.140625q-0.640625 0 -1.015625 -0.34375q-0.375 -0.359375 -0.375 -0.890625q0 -0.34375 0.171875 -0.609375q0.171875 -0.28125 0.46875 -0.421875q0.3125 -0.15625 0.875 -0.265625q0.765625 -0.140625 1.0625 -0.265625l0 -0.109375q0 -0.328125 -0.15625 -0.453125q-0.15625 -0.140625 -0.578125 -0.140625q-0.296875 0 -0.46875 0.125q-0.15625 0.109375 -0.265625 0.390625zm1.46875 0.890625q-0.203125 0.078125 -0.671875 0.171875q-0.453125 0.09375 -0.59375 0.1875q-0.203125 0.15625 -0.203125 0.390625q0 0.234375 0.171875 0.40625q0.171875 0.15625 0.4375 0.15625q0.296875 0 0.5625 -0.1875q0.203125 -0.15625 0.265625 -0.359375q0.03125 -0.140625 0.03125 -0.546875l0 -0.21875zm1.6835938 -2.15625l0.609375 0l0 -0.3125q0 -0.515625 0.109375 -0.765625q0.109375 -0.265625 0.40625 -0.421875q0.3125 -0.171875 0.765625 -0.171875q0.46875 0 0.921875 0.140625l-0.15625 0.765625q-0.265625 -0.0625 -0.5 -0.0625q-0.234375 0 -0.34375 0.109375q-0.109375 0.109375 -0.109375 0.4375l0 0.28125l0.828125 0l0 0.875l-0.828125 0l0 3.28125l-1.09375 0l0 -3.28125l-0.609375 0l0 -0.875zm2.6640625 0l0.609375 0l0 -0.3125q0 -0.515625 0.109375 -0.765625q0.109375 -0.265625 0.40625 -0.421875q0.3125 -0.171875 0.765625 -0.171875q0.46875 0 0.921875 0.140625l-0.15625 0.765625q-0.265625 -0.0625 -0.5 -0.0625q-0.234375 0 -0.34375 0.109375q-0.109375 0.109375 -0.109375 0.4375l0 0.28125l0.828125 0l0 0.875l-0.828125 0l0 3.28125l-1.09375 0l0 -3.28125l-0.609375 0l0 -0.875zm3.1484375 -0.5625l0 -1.015625l1.09375 0l0 1.015625l-1.09375 0zm0 4.71875l0 -4.15625l1.09375 0l0 4.15625l-1.09375 0zm5.8320312 -2.921875l-1.078125 0.1875q-0.046875 -0.3125 -0.25 -0.46875q-0.1875 -0.171875 -0.5 -0.171875q-0.40625 0 -0.65625 0.28125q-0.234375 0.28125 -0.234375 0.9375q0 0.75 0.234375 1.0625q0.25 0.296875 0.671875 0.296875q0.3125 0 0.515625 -0.171875q0.203125 -0.1875 0.28125 -0.625l1.078125 0.1875q-0.171875 0.734375 -0.65625 1.125q-0.46875 0.375 -1.265625 0.375q-0.90625 0 -1.453125 -0.578125q-0.546875 -0.578125 -0.546875 -1.59375q0 -1.015625 0.546875 -1.59375q0.546875 -0.578125 1.46875 -0.578125q0.765625 0 1.203125 0.328125q0.453125 0.328125 0.640625 1.0zm0.71484375 1.390625l0 -1.09375l2.15625 0l0 1.09375l-2.15625 0zm5.1953125 0.203125l1.09375 0.1875q-0.21875 0.609375 -0.671875 0.921875q-0.453125 0.3125 -1.140625 0.3125q-1.078125 0 -1.59375 -0.703125q-0.421875 -0.578125 -0.421875 -1.4375q0 -1.03125 0.53125 -1.609375q0.546875 -0.59375 1.375 -0.59375q0.921875 0 1.453125 0.625q0.546875 0.609375 0.515625 1.859375l-2.75 0q0.015625 0.5 0.265625 0.765625q0.265625 0.265625 0.640625 0.265625q0.25 0 0.421875 -0.140625q0.1875 -0.140625 0.28125 -0.453125zm0.0625 -1.109375q-0.015625 -0.46875 -0.25 -0.71875q-0.234375 -0.25 -0.578125 -0.25q-0.359375 0 -0.59375 0.265625q-0.234375 0.265625 -0.21875 0.703125l1.640625 0zm5.7460938 2.4375l-1.09375 0l0 -2.125q0 -0.671875 -0.078125 -0.859375q-0.0625 -0.203125 -0.21875 -0.3125q-0.15625 -0.109375 -0.375 -0.109375q-0.296875 0 -0.53125 0.15625q-0.21875 0.15625 -0.296875 0.421875q-0.078125 0.25 -0.078125 0.953125l0 1.875l-1.109375 0l0 -4.15625l1.03125 0l0 0.609375q0.53125 -0.703125 1.359375 -0.703125q0.359375 0 0.65625 0.140625q0.3125 0.125 0.46875 0.328125q0.15625 0.203125 0.203125 0.46875q0.0625 0.25 0.0625 0.734375l0 2.578125zm1.0117188 0.28125l1.265625 0.140625q0.03125 0.21875 0.140625 0.3125q0.15625 0.109375 0.484375 0.109375q0.4375 0 0.65625 -0.125q0.140625 -0.09375 0.21875 -0.28125q0.046875 -0.140625 0.046875 -0.5l0 -0.609375q-0.5 0.671875 -1.25 0.671875q-0.828125 0 -1.3125 -0.703125q-0.390625 -0.5625 -0.390625 -1.390625q0 -1.046875 0.5 -1.59375q0.5 -0.5625 1.25 -0.5625q0.765625 0 1.265625 0.6875l0 -0.59375l1.03125 0l0 3.734375q0 0.734375 -0.125 1.09375q-0.109375 0.359375 -0.328125 0.5625q-0.21875 0.21875 -0.59375 0.328125q-0.359375 0.125 -0.921875 0.125q-1.046875 0 -1.5 -0.359375q-0.4375 -0.359375 -0.4375 -0.921875q0 -0.046875 0 -0.125zm0.984375 -2.4375q0 0.65625 0.25 0.96875q0.265625 0.296875 0.640625 0.296875q0.40625 0 0.671875 -0.3125q0.28125 -0.3125 0.28125 -0.9375q0 -0.640625 -0.265625 -0.953125q-0.265625 -0.3125 -0.671875 -0.3125q-0.390625 0 -0.65625 0.3125q-0.25 0.296875 -0.25 0.9375zm4.0117188 -2.5625l0 -1.015625l1.09375 0l0 1.015625l-1.09375 0zm0 4.71875l0 -4.15625l1.09375 0l0 4.15625l-1.09375 0zm5.9882812 0l-1.09375 0l0 -2.125q0 -0.671875 -0.078125 -0.859375q-0.0625 -0.203125 -0.21875 -0.3125q-0.15625 -0.109375 -0.375 -0.109375q-0.296875 0 -0.53125 0.15625q-0.21875 0.15625 -0.296875 0.421875q-0.078125 0.25 -0.078125 0.953125l0 1.875l-1.109375 0l0 -4.15625l1.03125 0l0 0.609375q0.53125 -0.703125 1.359375 -0.703125q0.359375 0 0.65625 0.140625q0.3125 0.125 0.46875 0.328125q0.15625 0.203125 0.203125 0.46875q0.0625 0.25 0.0625 0.734375l0 2.578125zm3.5273438 -1.328125l1.09375 0.1875q-0.21875 0.609375 -0.671875 0.921875q-0.453125 0.3125 -1.140625 0.3125q-1.078125 0 -1.59375 -0.703125q-0.421875 -0.578125 -0.421875 -1.4375q0 -1.03125 0.53125 -1.609375q0.546875 -0.59375 1.375 -0.59375q0.921875 0 1.453125 0.625q0.546875 0.609375 0.515625 1.859375l-2.75 0q0.015625 0.5 0.265625 0.765625q0.265625 0.265625 0.640625 0.265625q0.25 0 0.421875 -0.140625q0.1875 -0.140625 0.28125 -0.453125zm0.0625 -1.109375q-0.015625 -0.46875 -0.25 -0.71875q-0.234375 -0.25 -0.578125 -0.25q-0.359375 0 -0.59375 0.265625q-0.234375 0.265625 -0.21875 0.703125l1.640625 0zm6.78125 2.4375l-1.109375 0l0 -4.140625q-0.59375 0.5625 -1.40625 0.828125l0 -0.984375q0.421875 -0.140625 0.921875 -0.53125q0.515625 -0.40625 0.703125 -0.921875l0.890625 0l0 5.75z" fill-rule="nonzero"/><path fill="#d9ead3" d="m162.29396 193.64043l104.708664 0l0 24.330704l-104.708664 0z" fill-rule="evenodd"/><path fill="#adbba8" d="m267.00262 193.64043l8.1102295 -8.110245l0 24.330704l-8.1102295 8.110245z" fill-rule="evenodd"/><path fill="#e0eedb" d="m162.29396 193.64043l8.110245 -8.110245l104.70865 0l-8.1102295 8.110245z" fill-rule="evenodd"/><path fill="#000000" fill-opacity="0.0" d="m162.29396 193.64043l8.110245 -8.110245l104.70865 0l0 24.330704l-8.1102295 8.110245l-104.708664 0zm0 0l104.708664 0l8.1102295 -8.110245m-8.1102295 8.110245l0 24.330704" fill-rule="evenodd"/><path stroke="#000000" stroke-width="1.0" stroke-linejoin="round" stroke-linecap="butt" d="m162.29396 193.64043l8.110245 -8.110245l104.70865 0l0 24.330704l-8.1102295 8.110245l-104.708664 0zm0 0l104.708664 0l8.1102295 -8.110245m-8.1102295 8.110245l0 24.330704" fill-rule="evenodd"/><path fill="#000000" d="m174.994 203.76703l0 -1.015625l1.09375 0l0 1.015625l-1.09375 0zm0 4.71875l0 -4.15625l1.09375 0l0 4.15625l-1.09375 0zm1.6914062 0l1.5 -2.140625l-1.4375 -2.015625l1.34375 0l0.734375 1.140625l0.765625 -1.140625l1.296875 0l-1.40625 1.96875l1.53125 2.1875l-1.34375 0l-0.84375 -1.28125l-0.859375 1.28125l-1.28125 0zm4.9804688 -4.71875l0 -1.015625l1.09375 0l0 1.015625l-1.09375 0zm0 4.71875l0 -4.15625l1.09375 0l0 4.15625l-1.09375 0zm3.0351562 -2.890625l-0.984375 -0.171875q0.15625 -0.609375 0.5625 -0.890625q0.421875 -0.296875 1.234375 -0.296875q0.734375 0 1.09375 0.1875q0.359375 0.171875 0.5 0.4375q0.140625 0.265625 0.140625 0.984375l0 1.28125q0 0.546875 0.046875 0.8125q0.046875 0.25 0.203125 0.546875l-1.09375 0q-0.046875 -0.109375 -0.109375 -0.328125q-0.015625 -0.09375 -0.03125 -0.125q-0.28125 0.265625 -0.609375 0.40625q-0.3125 0.140625 -0.671875 0.140625q-0.640625 0 -1.015625 -0.34375q-0.375 -0.359375 -0.375 -0.890625q0 -0.34375 0.171875 -0.609375q0.171875 -0.28125 0.46875 -0.421875q0.3125 -0.15625 0.875 -0.265625q0.765625 -0.140625 1.0625 -0.265625l0 -0.109375q0 -0.328125 -0.15625 -0.453125q-0.15625 -0.140625 -0.578125 -0.140625q-0.296875 0 -0.46875 0.125q-0.15625 0.109375 -0.265625 0.390625zm1.46875 0.890625q-0.203125 0.078125 -0.671875 0.171875q-0.453125 0.09375 -0.59375 0.1875q-0.203125 0.15625 -0.203125 0.390625q0 0.234375 0.171875 0.40625q0.171875 0.15625 0.4375 0.15625q0.296875 0 0.5625 -0.1875q0.203125 -0.15625 0.265625 -0.359375q0.03125 -0.140625 0.03125 -0.546875l0 -0.21875zm2.0429688 0.46875l0 -1.09375l2.15625 0l0 1.09375l-2.15625 0zm6.3984375 -1.390625l-1.078125 0.1875q-0.046875 -0.3125 -0.25 -0.46875q-0.1875 -0.171875 -0.5 -0.171875q-0.40625 0 -0.65625 0.28125q-0.234375 0.28125 -0.234375 0.9375q0 0.75 0.234375 1.0625q0.25 0.296875 0.671875 0.296875q0.3125 0 0.515625 -0.171875q0.203125 -0.1875 0.28125 -0.625l1.078125 0.1875q-0.171875 0.734375 -0.65625 1.125q-0.46875 0.375 -1.265625 0.375q-0.90625 0 -1.453125 -0.578125q-0.546875 -0.578125 -0.546875 -1.59375q0 -1.015625 0.546875 -1.59375q0.546875 -0.578125 1.46875 -0.578125q0.765625 0 1.203125 0.328125q0.453125 0.328125 0.640625 1.0zm0.71484375 1.390625l0 -1.09375l2.15625 0l0 1.09375l-2.15625 0zm4.6953125 -2.625l0 0.875l-0.75 0l0 1.671875q0 0.515625 0.015625 0.609375q0.015625 0.078125 0.09375 0.140625q0.078125 0.046875 0.1875 0.046875q0.15625 0 0.4375 -0.109375l0.09375 0.84375q-0.375 0.171875 -0.859375 0.171875q-0.296875 0 -0.546875 -0.09375q-0.234375 -0.109375 -0.34375 -0.265625q-0.109375 -0.15625 -0.15625 -0.421875q-0.03125 -0.203125 -0.03125 -0.78125l0 -1.8125l-0.5 0l0 -0.875l0.5 0l0 -0.8125l1.109375 -0.640625l0 1.453125l0.75 0zm1.8046875 4.15625l-1.09375 0l0 -4.15625l1.015625 0l0 0.59375q0.265625 -0.421875 0.46875 -0.546875q0.21875 -0.140625 0.484375 -0.140625q0.375 0 0.71875 0.21875l-0.34375 0.953125q-0.28125 -0.1875 -0.515625 -0.1875q-0.234375 0 -0.390625 0.140625q-0.15625 0.125 -0.25 0.453125q-0.09375 0.328125 -0.09375 1.390625l0 1.28125zm2.8789062 -2.890625l-0.984375 -0.171875q0.15625 -0.609375 0.5625 -0.890625q0.421875 -0.296875 1.234375 -0.296875q0.734375 0 1.09375 0.1875q0.359375 0.171875 0.5 0.4375q0.140625 0.265625 0.140625 0.984375l0 1.28125q0 0.546875 0.046875 0.8125q0.046875 0.25 0.203125 0.546875l-1.09375 0q-0.046875 -0.109375 -0.109375 -0.328125q-0.015625 -0.09375 -0.03125 -0.125q-0.28125 0.265625 -0.609375 0.40625q-0.3125 0.140625 -0.671875 0.140625q-0.640625 0 -1.015625 -0.34375q-0.375 -0.359375 -0.375 -0.890625q0 -0.34375 0.171875 -0.609375q0.171875 -0.28125 0.46875 -0.421875q0.3125 -0.15625 0.875 -0.265625q0.765625 -0.140625 1.0625 -0.265625l0 -0.109375q0 -0.328125 -0.15625 -0.453125q-0.15625 -0.140625 -0.578125 -0.140625q-0.296875 0 -0.46875 0.125q-0.15625 0.109375 -0.265625 0.390625zm1.46875 0.890625q-0.203125 0.078125 -0.671875 0.171875q-0.453125 0.09375 -0.59375 0.1875q-0.203125 0.15625 -0.203125 0.390625q0 0.234375 0.171875 0.40625q0.171875 0.15625 0.4375 0.15625q0.296875 0 0.5625 -0.1875q0.203125 -0.15625 0.265625 -0.359375q0.03125 -0.140625 0.03125 -0.546875l0 -0.21875zm1.6835938 -2.15625l0.609375 0l0 -0.3125q0 -0.515625 0.109375 -0.765625q0.109375 -0.265625 0.40625 -0.421875q0.3125 -0.171875 0.765625 -0.171875q0.46875 0 0.921875 0.140625l-0.15625 0.765625q-0.265625 -0.0625 -0.5 -0.0625q-0.234375 0 -0.34375 0.109375q-0.109375 0.109375 -0.109375 0.4375l0 0.28125l0.828125 0l0 0.875l-0.828125 0l0 3.28125l-1.09375 0l0 -3.28125l-0.609375 0l0 -0.875zm2.6640625 0l0.609375 0l0 -0.3125q0 -0.515625 0.109375 -0.765625q0.109375 -0.265625 0.40625 -0.421875q0.3125 -0.171875 0.765625 -0.171875q0.46875 0 0.921875 0.140625l-0.15625 0.765625q-0.265625 -0.0625 -0.5 -0.0625q-0.234375 0 -0.34375 0.109375q-0.109375 0.109375 -0.109375 0.4375l0 0.28125l0.828125 0l0 0.875l-0.828125 0l0 3.28125l-1.09375 0l0 -3.28125l-0.609375 0l0 -0.875zm3.1484375 -0.5625l0 -1.015625l1.09375 0l0 1.015625l-1.09375 0zm0 4.71875l0 -4.15625l1.09375 0l0 4.15625l-1.09375 0zm5.8320312 -2.921875l-1.078125 0.1875q-0.046875 -0.3125 -0.25 -0.46875q-0.1875 -0.171875 -0.5 -0.171875q-0.40625 0 -0.65625 0.28125q-0.234375 0.28125 -0.234375 0.9375q0 0.75 0.234375 1.0625q0.25 0.296875 0.671875 0.296875q0.3125 0 0.515625 -0.171875q0.203125 -0.1875 0.28125 -0.625l1.078125 0.1875q-0.171875 0.734375 -0.65625 1.125q-0.46875 0.375 -1.265625 0.375q-0.90625 0 -1.453125 -0.578125q-0.546875 -0.578125 -0.546875 -1.59375q0 -1.015625 0.546875 -1.59375q0.546875 -0.578125 1.46875 -0.578125q0.765625 0 1.203125 0.328125q0.453125 0.328125 0.640625 1.0zm0.71484375 1.390625l0 -1.09375l2.15625 0l0 1.09375l-2.15625 0zm5.1953125 0.203125l1.09375 0.1875q-0.21875 0.609375 -0.671875 0.921875q-0.453125 0.3125 -1.140625 0.3125q-1.078125 0 -1.59375 -0.703125q-0.421875 -0.578125 -0.421875 -1.4375q0 -1.03125 0.53125 -1.609375q0.546875 -0.59375 1.375 -0.59375q0.921875 0 1.453125 0.625q0.546875 0.609375 0.515625 1.859375l-2.75 0q0.015625 0.5 0.265625 0.765625q0.265625 0.265625 0.640625 0.265625q0.25 0 0.421875 -0.140625q0.1875 -0.140625 0.28125 -0.453125zm0.0625 -1.109375q-0.015625 -0.46875 -0.25 -0.71875q-0.234375 -0.25 -0.578125 -0.25q-0.359375 0 -0.59375 0.265625q-0.234375 0.265625 -0.21875 0.703125l1.640625 0zm5.7460938 2.4375l-1.09375 0l0 -2.125q0 -0.671875 -0.078125 -0.859375q-0.0625 -0.203125 -0.21875 -0.3125q-0.15625 -0.109375 -0.375 -0.109375q-0.296875 0 -0.53125 0.15625q-0.21875 0.15625 -0.296875 0.421875q-0.078125 0.25 -0.078125 0.953125l0 1.875l-1.109375 0l0 -4.15625l1.03125 0l0 0.609375q0.53125 -0.703125 1.359375 -0.703125q0.359375 0 0.65625 0.140625q0.3125 0.125 0.46875 0.328125q0.15625 0.203125 0.203125 0.46875q0.0625 0.25 0.0625 0.734375l0 2.578125zm1.0117188 0.28125l1.265625 0.140625q0.03125 0.21875 0.140625 0.3125q0.15625 0.109375 0.484375 0.109375q0.4375 0 0.65625 -0.125q0.140625 -0.09375 0.21875 -0.28125q0.046875 -0.140625 0.046875 -0.5l0 -0.609375q-0.5 0.671875 -1.25 0.671875q-0.828125 0 -1.3125 -0.703125q-0.390625 -0.5625 -0.390625 -1.390625q0 -1.046875 0.5 -1.59375q0.5 -0.5625 1.25 -0.5625q0.765625 0 1.265625 0.6875l0 -0.59375l1.03125 0l0 3.734375q0 0.734375 -0.125 1.09375q-0.109375 0.359375 -0.328125 0.5625q-0.21875 0.21875 -0.59375 0.328125q-0.359375 0.125 -0.921875 0.125q-1.046875 0 -1.5 -0.359375q-0.4375 -0.359375 -0.4375 -0.921875q0 -0.046875 0 -0.125zm0.984375 -2.4375q0 0.65625 0.25 0.96875q0.265625 0.296875 0.640625 0.296875q0.40625 0 0.671875 -0.3125q0.28125 -0.3125 0.28125 -0.9375q0 -0.640625 -0.265625 -0.953125q-0.265625 -0.3125 -0.671875 -0.3125q-0.390625 0 -0.65625 0.3125q-0.25 0.296875 -0.25 0.9375zm4.0117188 -2.5625l0 -1.015625l1.09375 0l0 1.015625l-1.09375 0zm0 4.71875l0 -4.15625l1.09375 0l0 4.15625l-1.09375 0zm5.9882812 0l-1.09375 0l0 -2.125q0 -0.671875 -0.078125 -0.859375q-0.0625 -0.203125 -0.21875 -0.3125q-0.15625 -0.109375 -0.375 -0.109375q-0.296875 0 -0.53125 0.15625q-0.21875 0.15625 -0.296875 0.421875q-0.078125 0.25 -0.078125 0.953125l0 1.875l-1.109375 0l0 -4.15625l1.03125 0l0 0.609375q0.53125 -0.703125 1.359375 -0.703125q0.359375 0 0.65625 0.140625q0.3125 0.125 0.46875 0.328125q0.15625 0.203125 0.203125 0.46875q0.0625 0.25 0.0625 0.734375l0 2.578125zm3.5273438 -1.328125l1.09375 0.1875q-0.21875 0.609375 -0.671875 0.921875q-0.453125 0.3125 -1.140625 0.3125q-1.078125 0 -1.59375 -0.703125q-0.421875 -0.578125 -0.421875 -1.4375q0 -1.03125 0.53125 -1.609375q0.546875 -0.59375 1.375 -0.59375q0.921875 0 1.453125 0.625q0.546875 0.609375 0.515625 1.859375l-2.75 0q0.015625 0.5 0.265625 0.765625q0.265625 0.265625 0.640625 0.265625q0.25 0 0.421875 -0.140625q0.1875 -0.140625 0.28125 -0.453125zm0.0625 -1.109375q-0.015625 -0.46875 -0.25 -0.71875q-0.234375 -0.25 -0.578125 -0.25q-0.359375 0 -0.59375 0.265625q-0.234375 0.265625 -0.21875 0.703125l1.640625 0zm7.671875 1.421875l0 1.015625l-3.84375 0q0.0625 -0.578125 0.375 -1.09375q0.3125 -0.515625 1.234375 -1.375q0.734375 -0.6875 0.90625 -0.9375q0.234375 -0.34375 0.234375 -0.671875q0 -0.375 -0.203125 -0.5625q-0.203125 -0.203125 -0.546875 -0.203125q-0.34375 0 -0.546875 0.21875q-0.203125 0.203125 -0.234375 0.671875l-1.09375 -0.109375q0.09375 -0.90625 0.609375 -1.296875q0.515625 -0.390625 1.296875 -0.390625q0.84375 0 1.328125 0.453125q0.484375 0.453125 0.484375 1.140625q0 0.390625 -0.140625 0.734375q-0.140625 0.34375 -0.4375 0.734375q-0.203125 0.25 -0.71875 0.734375q-0.515625 0.46875 -0.65625 0.625q-0.140625 0.15625 -0.21875 0.3125l2.171875 0z" fill-rule="nonzero"/><path fill="#d9ead3" d="m552.03937 24.628609l0 0c0 3.0071259 17.838135 5.4448814 39.84253 5.4448814c22.004395 0 39.84253 -2.4377556 39.84253 -5.4448814l0 32.669292c0 3.0071259 -17.838135 5.4448814 -39.84253 5.4448814c-22.004395 0 -39.84253 -2.4377556 -39.84253 -5.4448814z" fill-rule="evenodd"/><path fill="#e8f2e4" d="m552.03937 24.628609l0 0c0 -3.0071259 17.838135 -5.4448814 39.84253 -5.4448814c22.004395 0 39.84253 2.4377556 39.84253 5.4448814l0 0c0 3.0071259 -17.838135 5.4448814 -39.84253 5.4448814c-22.004395 0 -39.84253 -2.4377556 -39.84253 -5.4448814z" fill-rule="evenodd"/><path fill="#000000" fill-opacity="0.0" d="m631.7244 24.628609l0 0c0 3.0071259 -17.838135 5.4448814 -39.84253 5.4448814c-22.004395 0 -39.84253 -2.4377556 -39.84253 -5.4448814l0 0c0 -3.0071259 17.838135 -5.4448814 39.84253 -5.4448814c22.004395 0 39.84253 2.4377556 39.84253 5.4448814l0 32.669292c0 3.0071259 -17.838135 5.4448814 -39.84253 5.4448814c-22.004395 0 -39.84253 -2.4377556 -39.84253 -5.4448814l0 -32.669292" fill-rule="evenodd"/><path stroke="#000000" stroke-width="1.0" stroke-linejoin="round" stroke-linecap="butt" d="m631.7244 24.628609l0 0c0 3.0071259 -17.838135 5.4448814 -39.84253 5.4448814c-22.004395 0 -39.84253 -2.4377556 -39.84253 -5.4448814l0 0c0 -3.0071259 17.838135 -5.4448814 39.84253 -5.4448814c22.004395 0 39.84253 2.4377556 39.84253 5.4448814l0 32.669292c0 3.0071259 -17.838135 5.4448814 -39.84253 5.4448814c-22.004395 0 -39.84253 -2.4377556 -39.84253 -5.4448814l0 -32.669292" fill-rule="evenodd"/><path fill="#000000" d="m577.3805 43.610695l-1.796875 0.328125q-0.09375 -0.53125 -0.421875 -0.796875q-0.328125 -0.28125 -0.828125 -0.28125q-0.6875 0 -1.09375 0.46875q-0.40625 0.46875 -0.40625 1.578125q0 1.234375 0.40625 1.75q0.421875 0.5 1.109375 0.5q0.53125 0 0.859375 -0.296875q0.328125 -0.296875 0.46875 -1.03125l1.796875 0.3125q-0.28125 1.234375 -1.078125 1.875q-0.796875 0.625 -2.125 0.625q-1.515625 0 -2.421875 -0.953125q-0.90625 -0.953125 -0.90625 -2.65625q0 -1.703125 0.90625 -2.65625q0.90625 -0.953125 2.453125 -0.953125q1.265625 0 2.0 0.546875q0.75 0.53125 1.078125 1.640625zm1.3968506 4.875l0 -9.546875l7.078125 0l0 1.625l-5.15625 0l0 2.109375l4.796875 0l0 1.609375l-4.796875 0l0 2.59375l5.328125 0l0 1.609375l-7.25 0zm8.4991455 -4.71875q0 -1.453125 0.4375 -2.4375q0.328125 -0.734375 0.890625 -1.3125q0.5625 -0.578125 1.234375 -0.859375q0.890625 -0.375 2.046875 -0.375q2.109375 0 3.375 1.3125q1.265625 1.296875 1.265625 3.640625q0 2.296875 -1.25 3.609375q-1.25 1.296875 -3.359375 1.296875q-2.125 0 -3.390625 -1.296875q-1.25 -1.296875 -1.25 -3.578125zm1.984375 -0.0625q0 1.625 0.75 2.46875q0.75 0.828125 1.90625 0.828125q1.140625 0 1.875 -0.828125q0.75 -0.828125 0.75 -2.484375q0 -1.640625 -0.71875 -2.453125q-0.71875 -0.8125 -1.90625 -0.8125q-1.203125 0 -1.9375 0.828125q-0.71875 0.8125 -0.71875 2.453125zm8.28894 1.671875l1.875 -0.171875q0.171875 0.9375 0.6875 1.390625q0.515625 0.4375 1.390625 0.4375q0.9375 0 1.40625 -0.390625q0.46875 -0.40625 0.46875 -0.921875q0 -0.34375 -0.203125 -0.578125q-0.1875 -0.234375 -0.6875 -0.421875q-0.34375 -0.109375 -1.546875 -0.40625q-1.546875 -0.390625 -2.171875 -0.953125q-0.875 -0.78125 -0.875 -1.921875q0 -0.71875 0.40625 -1.359375q0.421875 -0.640625 1.1875 -0.96875q0.78125 -0.328125 1.890625 -0.328125q1.796875 0 2.703125 0.796875q0.90625 0.78125 0.953125 2.09375l-1.921875 0.078125q-0.125 -0.734375 -0.53125 -1.046875q-0.40625 -0.328125 -1.234375 -0.328125q-0.828125 0 -1.3125 0.34375q-0.296875 0.21875 -0.296875 0.59375q0 0.34375 0.28125 0.578125q0.359375 0.3125 1.765625 0.640625q1.40625 0.328125 2.078125 0.6875q0.6875 0.359375 1.0625 0.96875q0.375 0.609375 0.375 1.515625q0 0.828125 -0.453125 1.546875q-0.453125 0.703125 -1.296875 1.0625q-0.828125 0.34375 -2.0625 0.34375q-1.8125 0 -2.78125 -0.828125q-0.96875 -0.84375 -1.15625 -2.453125zm13.6553955 3.109375l-1.828125 0l0 -6.890625q-1.0 0.9375 -2.375 1.390625l0 -1.671875q0.71875 -0.234375 1.5625 -0.875q0.84375 -0.65625 1.15625 -1.53125l1.484375 0l0 9.578125z" fill-rule="nonzero"/><path fill="#000000" fill-opacity="0.0" d="m19.493439 50.69029l349.10236 0l0 42.01575l-349.10236 0z" fill-rule="evenodd"/><path fill="#000000" d="m144.53586 77.61029l0 -13.359375l2.6875 0l0 13.359375l-2.6875 0zm3.902069 0l4.5625 -6.96875l-4.140625 -6.390625l3.15625 0l2.6875 4.296875l2.609375 -4.296875l3.125 0l-4.140625 6.484375l4.5625 6.875l-3.25 0l-2.96875 -4.625l-2.96875 4.625l-3.234375 0zm13.724823 0l0 -13.359375l2.6875 0l0 13.359375l-2.6875 0zm17.308289 0l-2.9375 0l-1.171875 -3.03125l-5.328125 0l-1.109375 3.03125l-2.859375 0l5.203125 -13.359375l2.84375 0l5.359375 13.359375zm-4.96875 -5.28125l-1.84375 -4.953125l-1.796875 4.953125l3.640625 0zm6.0823364 1.71875l0 -2.5625l5.03125 0l0 2.5625l-5.03125 0zm15.072052 -1.34375l2.609375 0.828125q-0.59375 2.1875 -2.0 3.25q-1.390625 1.0625 -3.546875 1.0625q-2.65625 0 -4.375 -1.8125q-1.703125 -1.828125 -1.703125 -4.984375q0 -3.328125 1.71875 -5.171875q1.71875 -1.84375 4.515625 -1.84375q2.453125 0 3.984375 1.4375q0.921875 0.859375 1.375 2.46875l-2.671875 0.640625q-0.234375 -1.046875 -0.984375 -1.640625q-0.75 -0.609375 -1.828125 -0.609375q-1.484375 0 -2.421875 1.078125q-0.921875 1.0625 -0.921875 3.4375q0 2.53125 0.90625 3.609375q0.921875 1.078125 2.375 1.078125q1.078125 0 1.84375 -0.671875q0.78125 -0.6875 1.125 -2.15625zm9.5625 -1.6875q0 -2.046875 0.609375 -3.421875q0.453125 -1.03125 1.234375 -1.828125q0.796875 -0.8125 1.734375 -1.203125q1.25 -0.53125 2.875 -0.53125q2.953125 0 4.71875 1.828125q1.78125 1.828125 1.78125 5.09375q0 3.234375 -1.765625 5.0625q-1.75 1.828125 -4.6875 1.828125q-2.984375 0 -4.75 -1.8125q-1.75 -1.828125 -1.75 -5.015625zm2.78125 -0.09375q0 2.265625 1.046875 3.4375q1.046875 1.171875 2.65625 1.171875q1.609375 0 2.640625 -1.15625q1.046875 -1.171875 1.046875 -3.484375q0 -2.296875 -1.015625 -3.421875q-1.0 -1.140625 -2.671875 -1.140625q-1.671875 0 -2.6875 1.15625q-1.015625 1.140625 -1.015625 3.4375zm12.308289 6.6875l0 -13.359375l2.625 0l5.453125 8.921875l0 -8.921875l2.515625 0l0 13.359375l-2.703125 0l-5.390625 -8.703125l0 8.703125l-2.5 0zm13.441711 0l0 -13.359375l9.90625 0l0 2.265625l-7.21875 0l0 2.953125l6.71875 0l0 2.25l-6.71875 0l0 3.640625l7.46875 0l0 2.25l-10.15625 0z" fill-rule="nonzero"/><path fill="#d9ead3" d="m552.03937 126.09318l0 0c0 3.0071182 17.838135 5.4448776 39.84253 5.4448776c22.004395 0 39.84253 -2.4377594 39.84253 -5.4448776l0 32.66929c0 3.0071259 -17.838135 5.4448853 -39.84253 5.4448853c-22.004395 0 -39.84253 -2.4377594 -39.84253 -5.4448853z" fill-rule="evenodd"/><path fill="#e8f2e4" d="m552.03937 126.09318l0 0c0 -3.0071259 17.838135 -5.4448853 39.84253 -5.4448853c22.004395 0 39.84253 2.4377594 39.84253 5.4448853l0 0c0 3.0071182 -17.838135 5.4448776 -39.84253 5.4448776c-22.004395 0 -39.84253 -2.4377594 -39.84253 -5.4448776z" fill-rule="evenodd"/><path fill="#000000" fill-opacity="0.0" d="m631.7244 126.09318l0 0c0 3.0071182 -17.838135 5.4448776 -39.84253 5.4448776c-22.004395 0 -39.84253 -2.4377594 -39.84253 -5.4448776l0 0c0 -3.0071259 17.838135 -5.4448853 39.84253 -5.4448853c22.004395 0 39.84253 2.4377594 39.84253 5.4448853l0 32.66929c0 3.0071259 -17.838135 5.4448853 -39.84253 5.4448853c-22.004395 0 -39.84253 -2.4377594 -39.84253 -5.4448853l0 -32.66929" fill-rule="evenodd"/><path stroke="#000000" stroke-width="1.0" stroke-linejoin="round" stroke-linecap="butt" d="m631.7244 126.09318l0 0c0 3.0071182 -17.838135 5.4448776 -39.84253 5.4448776c-22.004395 0 -39.84253 -2.4377594 -39.84253 -5.4448776l0 0c0 -3.0071259 17.838135 -5.4448853 39.84253 -5.4448853c22.004395 0 39.84253 2.4377594 39.84253 5.4448853l0 32.66929c0 3.0071259 -17.838135 5.4448853 -39.84253 5.4448853c-22.004395 0 -39.84253 -2.4377594 -39.84253 -5.4448853l0 -32.66929" fill-rule="evenodd"/><path fill="#000000" d="m577.3805 145.07526l-1.796875 0.328125q-0.09375 -0.53125 -0.421875 -0.796875q-0.328125 -0.28125 -0.828125 -0.28125q-0.6875 0 -1.09375 0.46875q-0.40625 0.46875 -0.40625 1.578125q0 1.234375 0.40625 1.75q0.421875 0.5 1.109375 0.5q0.53125 0 0.859375 -0.296875q0.328125 -0.296875 0.46875 -1.03125l1.796875 0.3125q-0.28125 1.234375 -1.078125 1.875q-0.796875 0.625 -2.125 0.625q-1.515625 0 -2.421875 -0.953125q-0.90625 -0.953125 -0.90625 -2.65625q0 -1.703125 0.90625 -2.65625q0.90625 -0.953125 2.453125 -0.953125q1.265625 0 2.0 0.546875q0.75 0.53125 1.078125 1.640625zm1.3968506 4.875l0 -9.546875l7.078125 0l0 1.625l-5.15625 0l0 2.109375l4.796875 0l0 1.609375l-4.796875 0l0 2.59375l5.328125 0l0 1.609375l-7.25 0zm8.4991455 -4.71875q0 -1.453125 0.4375 -2.4375q0.328125 -0.734375 0.890625 -1.3125q0.5625 -0.578125 1.234375 -0.859375q0.890625 -0.375 2.046875 -0.375q2.109375 0 3.375 1.3125q1.265625 1.296875 1.265625 3.640625q0 2.296875 -1.25 3.609375q-1.25 1.296875 -3.359375 1.296875q-2.125 0 -3.390625 -1.296875q-1.25 -1.296875 -1.25 -3.578125zm1.984375 -0.0625q0 1.625 0.75 2.46875q0.75 0.828125 1.90625 0.828125q1.140625 0 1.875 -0.828125q0.75 -0.828125 0.75 -2.484375q0 -1.640625 -0.71875 -2.453125q-0.71875 -0.8125 -1.90625 -0.8125q-1.203125 0 -1.9375 0.828125q-0.71875 0.8125 -0.71875 2.453125zm8.28894 1.671875l1.875 -0.171875q0.171875 0.9375 0.6875 1.390625q0.515625 0.4375 1.390625 0.4375q0.9375 0 1.40625 -0.390625q0.46875 -0.40625 0.46875 -0.921875q0 -0.34375 -0.203125 -0.578125q-0.1875 -0.234375 -0.6875 -0.421875q-0.34375 -0.109375 -1.546875 -0.40625q-1.546875 -0.390625 -2.171875 -0.953125q-0.875 -0.78125 -0.875 -1.921875q0 -0.71875 0.40625 -1.359375q0.421875 -0.640625 1.1875 -0.96875q0.78125 -0.328125 1.890625 -0.328125q1.796875 0 2.703125 0.796875q0.90625 0.78125 0.953125 2.09375l-1.921875 0.078125q-0.125 -0.734375 -0.53125 -1.046875q-0.40625 -0.328125 -1.234375 -0.328125q-0.828125 0 -1.3125 0.34375q-0.296875 0.21875 -0.296875 0.59375q0 0.34375 0.28125 0.578125q0.359375 0.3125 1.765625 0.640625q1.40625 0.328125 2.078125 0.6875q0.6875 0.359375 1.0625 0.96875q0.375 0.609375 0.375 1.515625q0 0.828125 -0.453125 1.546875q-0.453125 0.703125 -1.296875 1.0625q-0.828125 0.34375 -2.0625 0.34375q-1.8125 0 -2.78125 -0.828125q-0.96875 -0.84375 -1.15625 -2.453125zm15.1397705 1.40625l0 1.703125l-6.40625 0q0.109375 -0.96875 0.625 -1.828125q0.53125 -0.859375 2.0625 -2.28125q1.234375 -1.15625 1.515625 -1.5625q0.375 -0.5625 0.375 -1.125q0 -0.609375 -0.328125 -0.9375q-0.328125 -0.328125 -0.90625 -0.328125q-0.578125 0 -0.921875 0.34375q-0.328125 0.34375 -0.375 1.140625l-1.828125 -0.171875q0.15625 -1.515625 1.015625 -2.171875q0.859375 -0.65625 2.15625 -0.65625q1.40625 0 2.203125 0.765625q0.8125 0.75 0.8125 1.890625q0 0.640625 -0.234375 1.234375q-0.21875 0.578125 -0.71875 1.203125q-0.328125 0.4375 -1.203125 1.234375q-0.859375 0.78125 -1.09375 1.046875q-0.234375 0.25 -0.375 0.5l3.625 0z" fill-rule="nonzero"/><path fill="#d9ead3" d="m552.03937 227.55774l0 0c0 3.0071259 17.838135 5.4448853 39.84253 5.4448853c22.004395 0 39.84253 -2.4377594 39.84253 -5.4448853l0 32.66928c0 3.007141 -17.838135 5.4448853 -39.84253 5.4448853c-22.004395 0 -39.84253 -2.4377441 -39.84253 -5.4448853z" fill-rule="evenodd"/><path fill="#e8f2e4" d="m552.03937 227.55774l0 0c0 -3.0071259 17.838135 -5.4448853 39.84253 -5.4448853c22.004395 0 39.84253 2.4377594 39.84253 5.4448853l0 0c0 3.0071259 -17.838135 5.4448853 -39.84253 5.4448853c-22.004395 0 -39.84253 -2.4377594 -39.84253 -5.4448853z" fill-rule="evenodd"/><path fill="#000000" fill-opacity="0.0" d="m631.7244 227.55774l0 0c0 3.0071259 -17.838135 5.4448853 -39.84253 5.4448853c-22.004395 0 -39.84253 -2.4377594 -39.84253 -5.4448853l0 0c0 -3.0071259 17.838135 -5.4448853 39.84253 -5.4448853c22.004395 0 39.84253 2.4377594 39.84253 5.4448853l0 32.66928c0 3.007141 -17.838135 5.4448853 -39.84253 5.4448853c-22.004395 0 -39.84253 -2.4377441 -39.84253 -5.4448853l0 -32.66928" fill-rule="evenodd"/><path stroke="#000000" stroke-width="1.0" stroke-linejoin="round" stroke-linecap="butt" d="m631.7244 227.55774l0 0c0 3.0071259 -17.838135 5.4448853 -39.84253 5.4448853c-22.004395 0 -39.84253 -2.4377594 -39.84253 -5.4448853l0 0c0 -3.0071259 17.838135 -5.4448853 39.84253 -5.4448853c22.004395 0 39.84253 2.4377594 39.84253 5.4448853l0 32.66928c0 3.007141 -17.838135 5.4448853 -39.84253 5.4448853c-22.004395 0 -39.84253 -2.4377441 -39.84253 -5.4448853l0 -32.66928" fill-rule="evenodd"/><path fill="#000000" d="m577.3805 246.53983l-1.796875 0.328125q-0.09375 -0.53125 -0.421875 -0.796875q-0.328125 -0.28125 -0.828125 -0.28125q-0.6875 0 -1.09375 0.46875q-0.40625 0.46875 -0.40625 1.578125q0 1.234375 0.40625 1.75q0.421875 0.5 1.109375 0.5q0.53125 0 0.859375 -0.296875q0.328125 -0.296875 0.46875 -1.03125l1.796875 0.3125q-0.28125 1.234375 -1.078125 1.875q-0.796875 0.625 -2.125 0.625q-1.515625 0 -2.421875 -0.953125q-0.90625 -0.953125 -0.90625 -2.65625q0 -1.703125 0.90625 -2.65625q0.90625 -0.953125 2.453125 -0.953125q1.265625 0 2.0 0.546875q0.75 0.53125 1.078125 1.640625zm1.3968506 4.875l0 -9.546875l7.078125 0l0 1.625l-5.15625 0l0 2.109375l4.796875 0l0 1.609375l-4.796875 0l0 2.59375l5.328125 0l0 1.609375l-7.25 0zm8.4991455 -4.71875q0 -1.453125 0.4375 -2.4375q0.328125 -0.734375 0.890625 -1.3125q0.5625 -0.578125 1.234375 -0.859375q0.890625 -0.375 2.046875 -0.375q2.109375 0 3.375 1.3125q1.265625 1.296875 1.265625 3.640625q0 2.296875 -1.25 3.609375q-1.25 1.296875 -3.359375 1.296875q-2.125 0 -3.390625 -1.296875q-1.25 -1.296875 -1.25 -3.578125zm1.984375 -0.0625q0 1.625 0.75 2.46875q0.75 0.828125 1.90625 0.828125q1.140625 0 1.875 -0.828125q0.75 -0.828125 0.75 -2.484375q0 -1.640625 -0.71875 -2.453125q-0.71875 -0.8125 -1.90625 -0.8125q-1.203125 0 -1.9375 0.828125q-0.71875 0.8125 -0.71875 2.453125zm8.28894 1.671875l1.875 -0.171875q0.171875 0.9375 0.6875 1.390625q0.515625 0.4375 1.390625 0.4375q0.9375 0 1.40625 -0.390625q0.46875 -0.40625 0.46875 -0.921875q0 -0.34375 -0.203125 -0.578125q-0.1875 -0.234375 -0.6875 -0.421875q-0.34375 -0.109375 -1.546875 -0.40625q-1.546875 -0.390625 -2.171875 -0.953125q-0.875 -0.78125 -0.875 -1.921875q0 -0.71875 0.40625 -1.359375q0.421875 -0.640625 1.1875 -0.96875q0.78125 -0.328125 1.890625 -0.328125q1.796875 0 2.703125 0.796875q0.90625 0.78125 0.953125 2.09375l-1.921875 0.078125q-0.125 -0.734375 -0.53125 -1.046875q-0.40625 -0.328125 -1.234375 -0.328125q-0.828125 0 -1.3125 0.34375q-0.296875 0.21875 -0.296875 0.59375q0 0.34375 0.28125 0.578125q0.359375 0.3125 1.765625 0.640625q1.40625 0.328125 2.078125 0.6875q0.6875 0.359375 1.0625 0.96875q0.375 0.609375 0.375 1.515625q0 0.828125 -0.453125 1.546875q-0.453125 0.703125 -1.296875 1.0625q-0.828125 0.34375 -2.0625 0.34375q-1.8125 0 -2.78125 -0.828125q-0.96875 -0.84375 -1.15625 -2.453125zm8.9053955 0.578125l1.765625 -0.21875q0.09375 0.6875 0.453125 1.046875q0.375 0.34375 0.90625 0.34375q0.5625 0 0.953125 -0.421875q0.390625 -0.4375 0.390625 -1.15625q0 -0.6875 -0.375 -1.09375q-0.375 -0.40625 -0.90625 -0.40625q-0.34375 0 -0.84375 0.140625l0.203125 -1.5q0.75 0.03125 1.140625 -0.3125q0.390625 -0.34375 0.390625 -0.90625q0 -0.484375 -0.296875 -0.765625q-0.28125 -0.296875 -0.75 -0.296875q-0.46875 0 -0.8125 0.328125q-0.328125 0.328125 -0.390625 0.953125l-1.6875 -0.296875q0.171875 -0.859375 0.515625 -1.375q0.359375 -0.515625 1.0 -0.8125q0.640625 -0.296875 1.421875 -0.296875q1.34375 0 2.15625 0.859375q0.671875 0.703125 0.671875 1.59375q0 1.25 -1.375 2.0q0.828125 0.171875 1.3125 0.78125q0.5 0.609375 0.5 1.484375q0 1.25 -0.921875 2.140625q-0.921875 0.875 -2.28125 0.875q-1.296875 0 -2.15625 -0.734375q-0.84375 -0.75 -0.984375 -1.953125z" fill-rule="nonzero"/><path fill="#000000" fill-opacity="0.0" d="m267.00262 140.92389l285.03937 -99.968506" fill-rule="evenodd"/><path stroke="#000000" stroke-width="1.0" stroke-linejoin="round" stroke-linecap="butt" d="m267.00262 140.92389l285.03937 -99.968506" fill-rule="evenodd"/><path fill="#000000" fill-opacity="0.0" d="m591.8819 164.20735l0 57.921265" fill-rule="evenodd"/><path stroke="#000000" stroke-width="1.0" stroke-linejoin="round" stroke-linecap="butt" d="m591.8819 164.20735l0 57.921265" fill-rule="evenodd"/><path fill="#000000" fill-opacity="0.0" d="m552.03937 243.8924l-285.03937 -38.07875" fill-rule="evenodd"/><path stroke="#000000" stroke-width="1.0" stroke-linejoin="round" stroke-linecap="butt" d="m552.03937 243.8924l-285.03937 -38.07875" fill-rule="evenodd"/><path fill="#000000" fill-opacity="0.0" d="m281.25198 128.0971l320.78738 0l0 42.015747l-320.78738 0z" fill-rule="evenodd"/><path fill="#000000" fill-opacity="0.0" d="m591.8819 120.64829l0 -57.921257" fill-rule="evenodd"/><path stroke="#000000" stroke-width="1.0" stroke-linejoin="round" stroke-linecap="butt" d="m591.8819 120.64829l0 -57.921257" fill-rule="evenodd"/><path fill="#000000" fill-opacity="0.0" d="m269.23096 126.27034l69.60632 0l0 32.314957l-69.60632 0z" fill-rule="evenodd"/><path fill="#ff0000" d="m282.71533 143.7291l0.96875 0.125q-0.234375 0.84375 -0.859375 1.3125q-0.609375 0.46875 -1.578125 0.46875q-1.203125 0 -1.921875 -0.75q-0.703125 -0.75 -0.703125 -2.09375q0 -1.390625 0.71875 -2.15625q0.71875 -0.78125 1.859375 -0.78125q1.109375 0 1.8125 0.765625q0.703125 0.75 0.703125 2.125q0 0.078125 0 0.234375l-4.125 0q0.046875 0.921875 0.515625 1.40625q0.46875 0.484375 1.15625 0.484375q0.515625 0 0.875 -0.265625q0.359375 -0.28125 0.578125 -0.875zm-3.078125 -1.515625l3.09375 0q-0.0625 -0.6875 -0.359375 -1.046875q-0.453125 -0.53125 -1.15625 -0.53125q-0.640625 0 -1.09375 0.4375q-0.4375 0.421875 -0.484375 1.140625zm7.2702637 2.453125l0.125 0.828125q-0.390625 0.09375 -0.703125 0.09375q-0.5 0 -0.78125 -0.15625q-0.28125 -0.171875 -0.40625 -0.4375q-0.109375 -0.265625 -0.109375 -1.109375l0 -3.171875l-0.6875 0l0 -0.734375l0.6875 0l0 -1.359375l0.9375 -0.5625l0 1.921875l0.9375 0l0 0.734375l-0.9375 0l0 3.234375q0 0.390625 0.046875 0.515625q0.046875 0.109375 0.15625 0.1875q0.109375 0.0625 0.328125 0.0625q0.15625 0 0.40625 -0.046875zm0.9137573 0.84375l0 -7.625l0.9375 0l0 2.734375q0.65625 -0.765625 1.65625 -0.765625q0.609375 0 1.0625 0.25q0.453125 0.234375 0.640625 0.671875q0.203125 0.421875 0.203125 1.234375l0 3.5l-0.9375 0l0 -3.5q0 -0.703125 -0.3125 -1.015625q-0.296875 -0.328125 -0.859375 -0.328125q-0.40625 0 -0.78125 0.21875q-0.359375 0.21875 -0.515625 0.59375q-0.15625 0.359375 -0.15625 1.015625l0 3.015625l-0.9375 0zm9.192139 0l-0.9375 0l0 -5.96875q-0.34375 0.328125 -0.890625 0.65625q-0.546875 0.3125 -0.984375 0.46875l0 -0.90625q0.796875 -0.359375 1.375 -0.890625q0.59375 -0.53125 0.828125 -1.015625l0.609375 0l0 7.65625z" fill-rule="nonzero"/><path fill="#000000" fill-opacity="0.0" d="m267.0 201.86351l69.60629 0l0 32.314972l-69.60629 0z" fill-rule="evenodd"/><path fill="#ff0000" d="m280.48438 219.32227l0.96875 0.125q-0.234375 0.84375 -0.859375 1.3125q-0.609375 0.46875 -1.578125 0.46875q-1.203125 0 -1.921875 -0.75q-0.703125 -0.75 -0.703125 -2.09375q0 -1.390625 0.71875 -2.15625q0.71875 -0.78125 1.859375 -0.78125q1.109375 0 1.8125 0.765625q0.703125 0.75 0.703125 2.125q0 0.078125 0 0.234375l-4.125 0q0.046875 0.921875 0.515625 1.40625q0.46875 0.484375 1.15625 0.484375q0.515625 0 0.875 -0.265625q0.359375 -0.28125 0.578125 -0.875zm-3.078125 -1.515625l3.09375 0q-0.0625 -0.6875 -0.359375 -1.046875q-0.453125 -0.53125 -1.15625 -0.53125q-0.640625 0 -1.09375 0.4375q-0.4375 0.421875 -0.484375 1.140625zm7.2702637 2.453125l0.125 0.828125q-0.390625 0.09375 -0.703125 0.09375q-0.5 0 -0.78125 -0.15625q-0.28125 -0.171875 -0.40625 -0.4375q-0.109375 -0.265625 -0.109375 -1.109375l0 -3.171875l-0.6875 0l0 -0.734375l0.6875 0l0 -1.359375l0.9375 -0.5625l0 1.921875l0.9375 0l0 0.734375l-0.9375 0l0 3.234375q0 0.390625 0.046875 0.515625q0.046875 0.109375 0.15625 0.1875q0.109375 0.0625 0.328125 0.0625q0.15625 0 0.40625 -0.046875zm0.9137573 0.84375l0 -7.625l0.9375 0l0 2.734375q0.65625 -0.765625 1.65625 -0.765625q0.609375 0 1.0625 0.25q0.453125 0.234375 0.640625 0.671875q0.203125 0.421875 0.203125 1.234375l0 3.5l-0.9375 0l0 -3.5q0 -0.703125 -0.3125 -1.015625q-0.296875 -0.328125 -0.859375 -0.328125q-0.40625 0 -0.78125 0.21875q-0.359375 0.21875 -0.515625 0.59375q-0.15625 0.359375 -0.15625 1.015625l0 3.015625l-0.9375 0zm10.582764 -0.90625l0 0.90625l-5.03125 0q-0.015625 -0.34375 0.109375 -0.65625q0.1875 -0.515625 0.609375 -1.015625q0.421875 -0.5 1.234375 -1.140625q1.234375 -1.03125 1.671875 -1.625q0.4375 -0.59375 0.4375 -1.125q0 -0.5625 -0.40625 -0.9375q-0.390625 -0.390625 -1.03125 -0.390625q-0.671875 0 -1.078125 0.40625q-0.40625 0.40625 -0.40625 1.125l-0.96875 -0.09375q0.09375 -1.078125 0.734375 -1.640625q0.65625 -0.5625 1.734375 -0.5625q1.109375 0 1.75 0.609375q0.640625 0.609375 0.640625 1.5q0 0.46875 -0.1875 0.90625q-0.1875 0.4375 -0.625 0.9375q-0.4375 0.484375 -1.453125 1.328125q-0.828125 0.71875 -1.078125 0.96875q-0.234375 0.25 -0.390625 0.5l3.734375 0z" fill-rule="nonzero"/><path fill="#000000" fill-opacity="0.0" d="m518.43567 40.95538l69.60632 0l0 32.31496l-69.60632 0z" fill-rule="evenodd"/><path fill="#ff0000" d="m531.92004 58.41413l0.96875 0.125q-0.234375 0.84375 -0.859375 1.3125q-0.609375 0.46875 -1.578125 0.46875q-1.203125 0 -1.921875 -0.75q-0.703125 -0.75 -0.703125 -2.09375q0 -1.390625 0.71875 -2.15625q0.71875 -0.78125 1.859375 -0.78125q1.109375 0 1.8125 0.765625q0.703125 0.75 0.703125 2.125q0 0.078125 0 0.234375l-4.125 0q0.046875 0.921875 0.515625 1.40625q0.46875 0.484375 1.15625 0.484375q0.515625 0 0.875 -0.265625q0.359375 -0.28125 0.578125 -0.875zm-3.078125 -1.515625l3.09375 0q-0.0625 -0.6875 -0.359375 -1.046875q-0.453125 -0.53125 -1.15625 -0.53125q-0.640625 0 -1.09375 0.4375q-0.4375 0.421875 -0.484375 1.140625zm7.2702637 2.453125l0.125 0.828125q-0.390625 0.09375 -0.703125 0.09375q-0.5 0 -0.78125 -0.15625q-0.28125 -0.171875 -0.40625 -0.4375q-0.109375 -0.265625 -0.109375 -1.109375l0 -3.171875l-0.6875 0l0 -0.734375l0.6875 0l0 -1.359375l0.9375 -0.5625l0 1.921875l0.9375 0l0 0.734375l-0.9375 0l0 3.234375q0 0.390625 0.046875 0.515625q0.046875 0.109375 0.15625 0.1875q0.109375 0.0625 0.328125 0.0625q0.15625 0 0.40625 -0.046875zm0.9137573 0.84375l0 -7.625l0.9375 0l0 2.734375q0.65625 -0.765625 1.65625 -0.765625q0.609375 0 1.0625 0.25q0.453125 0.234375 0.640625 0.671875q0.203125 0.421875 0.203125 1.234375l0 3.5l-0.9375 0l0 -3.5q0 -0.703125 -0.3125 -1.015625q-0.296875 -0.328125 -0.859375 -0.328125q-0.40625 0 -0.78125 0.21875q-0.359375 0.21875 -0.515625 0.59375q-0.15625 0.359375 -0.15625 1.015625l0 3.015625l-0.9375 0zm10.582764 -0.90625l0 0.90625l-5.03125 0q-0.015625 -0.34375 0.109375 -0.65625q0.1875 -0.515625 0.609375 -1.015625q0.421875 -0.5 1.234375 -1.140625q1.234375 -1.03125 1.671875 -1.625q0.4375 -0.59375 0.4375 -1.125q0 -0.5625 -0.40625 -0.9375q-0.390625 -0.390625 -1.03125 -0.390625q-0.671875 0 -1.078125 0.40625q-0.40625 0.40625 -0.40625 1.125l-0.96875 -0.09375q0.09375 -1.078125 0.734375 -1.640625q0.65625 -0.5625 1.734375 -0.5625q1.109375 0 1.75 0.609375q0.640625 0.609375 0.640625 1.5q0 0.46875 -0.1875 0.90625q-0.1875 0.4375 -0.625 0.9375q-0.4375 0.484375 -1.453125 1.328125q-0.828125 0.71875 -1.078125 0.96875q-0.234375 0.25 -0.390625 0.5l3.734375 0z" fill-rule="nonzero"/><path fill="#000000" fill-opacity="0.0" d="m588.042 55.540684l69.60632 0l0 32.31496l-69.60632 0z" fill-rule="evenodd"/><path fill="#ff0000" d="m601.52637 72.999435l0.96875 0.125q-0.234375 0.84375 -0.859375 1.3125q-0.609375 0.46875 -1.578125 0.46875q-1.203125 0 -1.921875 -0.75q-0.703125 -0.75 -0.703125 -2.09375q0 -1.390625 0.71875 -2.15625q0.71875 -0.78125 1.859375 -0.78125q1.109375 0 1.8125 0.765625q0.703125 0.75 0.703125 2.125q0 0.078125 0 0.234375l-4.125 0q0.046875 0.921875 0.515625 1.40625q0.46875 0.484375 1.15625 0.484375q0.515625 0 0.875 -0.265625q0.359375 -0.28125 0.578125 -0.875zm-3.078125 -1.515625l3.09375 0q-0.0625 -0.6875 -0.359375 -1.046875q-0.453125 -0.53125 -1.15625 -0.53125q-0.640625 0 -1.09375 0.4375q-0.4375 0.421875 -0.484375 1.140625zm7.2702637 2.453125l0.125 0.828125q-0.390625 0.09375 -0.703125 0.09375q-0.5 0 -0.78125 -0.15625q-0.28125 -0.171875 -0.40625 -0.4375q-0.109375 -0.265625 -0.109375 -1.109375l0 -3.171875l-0.6875 0l0 -0.734375l0.6875 0l0 -1.359375l0.9375 -0.5625l0 1.921875l0.9375 0l0 0.734375l-0.9375 0l0 3.234375q0 0.390625 0.046875 0.515625q0.046875 0.109375 0.15625 0.1875q0.109375 0.0625 0.328125 0.0625q0.15625 0 0.40625 -0.046875zm0.9137573 0.84375l0 -7.625l0.9375 0l0 2.734375q0.65625 -0.765625 1.65625 -0.765625q0.609375 0 1.0625 0.25q0.453125 0.234375 0.640625 0.671875q0.203125 0.421875 0.203125 1.234375l0 3.5l-0.9375 0l0 -3.5q0 -0.703125 -0.3125 -1.015625q-0.296875 -0.328125 -0.859375 -0.328125q-0.40625 0 -0.78125 0.21875q-0.359375 0.21875 -0.515625 0.59375q-0.15625 0.359375 -0.15625 1.015625l0 3.015625l-0.9375 0zm9.192139 0l-0.9375 0l0 -5.96875q-0.34375 0.328125 -0.890625 0.65625q-0.546875 0.3125 -0.984375 0.46875l0 -0.90625q0.796875 -0.359375 1.375 -0.890625q0.59375 -0.53125 0.828125 -1.015625l0.609375 0l0 7.65625z" fill-rule="nonzero"/><path fill="#000000" fill-opacity="0.0" d="m588.042 97.31759l69.60632 0l0 32.314964l-69.60632 0z" fill-rule="evenodd"/><path fill="#ff0000" d="m601.52637 114.77634l0.96875 0.125q-0.234375 0.84375 -0.859375 1.3125q-0.609375 0.46875 -1.578125 0.46875q-1.203125 0 -1.921875 -0.75q-0.703125 -0.75 -0.703125 -2.09375q0 -1.390625 0.71875 -2.15625q0.71875 -0.78125 1.859375 -0.78125q1.109375 0 1.8125 0.765625q0.703125 0.75 0.703125 2.125q0 0.078125 0 0.234375l-4.125 0q0.046875 0.921875 0.515625 1.40625q0.46875 0.484375 1.15625 0.484375q0.515625 0 0.875 -0.265625q0.359375 -0.28125 0.578125 -0.875zm-3.078125 -1.515625l3.09375 0q-0.0625 -0.6875 -0.359375 -1.046875q-0.453125 -0.53125 -1.15625 -0.53125q-0.640625 0 -1.09375 0.4375q-0.4375 0.421875 -0.484375 1.140625zm7.2702637 2.453125l0.125 0.828125q-0.390625 0.09375 -0.703125 0.09375q-0.5 0 -0.78125 -0.15625q-0.28125 -0.171875 -0.40625 -0.4375q-0.109375 -0.265625 -0.109375 -1.109375l0 -3.171875l-0.6875 0l0 -0.734375l0.6875 0l0 -1.359375l0.9375 -0.5625l0 1.921875l0.9375 0l0 0.734375l-0.9375 0l0 3.234375q0 0.390625 0.046875 0.515625q0.046875 0.109375 0.15625 0.1875q0.109375 0.0625 0.328125 0.0625q0.15625 0 0.40625 -0.046875zm0.9137573 0.84375l0 -7.625l0.9375 0l0 2.734375q0.65625 -0.765625 1.65625 -0.765625q0.609375 0 1.0625 0.25q0.453125 0.234375 0.640625 0.671875q0.203125 0.421875 0.203125 1.234375l0 3.5l-0.9375 0l0 -3.5q0 -0.703125 -0.3125 -1.015625q-0.296875 -0.328125 -0.859375 -0.328125q-0.40625 0 -0.78125 0.21875q-0.359375 0.21875 -0.515625 0.59375q-0.15625 0.359375 -0.15625 1.015625l0 3.015625l-0.9375 0zm9.192139 0l-0.9375 0l0 -5.96875q-0.34375 0.328125 -0.890625 0.65625q-0.546875 0.3125 -0.984375 0.46875l0 -0.90625q0.796875 -0.359375 1.375 -0.890625q0.59375 -0.53125 0.828125 -1.015625l0.609375 0l0 7.65625z" fill-rule="nonzero"/><path fill="#000000" fill-opacity="0.0" d="m588.042 155.2231l69.60632 0l0 32.314957l-69.60632 0z" fill-rule="evenodd"/><path fill="#ff0000" d="m601.52637 172.68185l0.96875 0.125q-0.234375 0.84375 -0.859375 1.3125q-0.609375 0.46875 -1.578125 0.46875q-1.203125 0 -1.921875 -0.75q-0.703125 -0.75 -0.703125 -2.09375q0 -1.390625 0.71875 -2.15625q0.71875 -0.78125 1.859375 -0.78125q1.109375 0 1.8125 0.765625q0.703125 0.75 0.703125 2.125q0 0.078125 0 0.234375l-4.125 0q0.046875 0.921875 0.515625 1.40625q0.46875 0.484375 1.15625 0.484375q0.515625 0 0.875 -0.265625q0.359375 -0.28125 0.578125 -0.875zm-3.078125 -1.515625l3.09375 0q-0.0625 -0.6875 -0.359375 -1.046875q-0.453125 -0.53125 -1.15625 -0.53125q-0.640625 0 -1.09375 0.4375q-0.4375 0.421875 -0.484375 1.140625zm7.2702637 2.453125l0.125 0.828125q-0.390625 0.09375 -0.703125 0.09375q-0.5 0 -0.78125 -0.15625q-0.28125 -0.171875 -0.40625 -0.4375q-0.109375 -0.265625 -0.109375 -1.109375l0 -3.171875l-0.6875 0l0 -0.734375l0.6875 0l0 -1.359375l0.9375 -0.5625l0 1.921875l0.9375 0l0 0.734375l-0.9375 0l0 3.234375q0 0.390625 0.046875 0.515625q0.046875 0.109375 0.15625 0.1875q0.109375 0.0625 0.328125 0.0625q0.15625 0 0.40625 -0.046875zm0.9137573 0.84375l0 -7.625l0.9375 0l0 2.734375q0.65625 -0.765625 1.65625 -0.765625q0.609375 0 1.0625 0.25q0.453125 0.234375 0.640625 0.671875q0.203125 0.421875 0.203125 1.234375l0 3.5l-0.9375 0l0 -3.5q0 -0.703125 -0.3125 -1.015625q-0.296875 -0.328125 -0.859375 -0.328125q-0.40625 0 -0.78125 0.21875q-0.359375 0.21875 -0.515625 0.59375q-0.15625 0.359375 -0.15625 1.015625l0 3.015625l-0.9375 0zm10.582764 -0.90625l0 0.90625l-5.03125 0q-0.015625 -0.34375 0.109375 -0.65625q0.1875 -0.515625 0.609375 -1.015625q0.421875 -0.5 1.234375 -1.140625q1.234375 -1.03125 1.671875 -1.625q0.4375 -0.59375 0.4375 -1.125q0 -0.5625 -0.40625 -0.9375q-0.390625 -0.390625 -1.03125 -0.390625q-0.671875 0 -1.078125 0.40625q-0.40625 0.40625 -0.40625 1.125l-0.96875 -0.09375q0.09375 -1.078125 0.734375 -1.640625q0.65625 -0.5625 1.734375 -0.5625q1.109375 0 1.75 0.609375q0.640625 0.609375 0.640625 1.5q0 0.46875 -0.1875 0.90625q-0.1875 0.4375 -0.625 0.9375q-0.4375 0.484375 -1.453125 1.328125q-0.828125 0.71875 -1.078125 0.96875q-0.234375 0.25 -0.390625 0.5l3.734375 0z" fill-rule="nonzero"/><path fill="#000000" fill-opacity="0.0" d="m588.042 197.0l69.60632 0l0 32.314957l-69.60632 0z" fill-rule="evenodd"/><path fill="#ff0000" d="m601.52637 214.45876l0.96875 0.125q-0.234375 0.84375 -0.859375 1.3125q-0.609375 0.46875 -1.578125 0.46875q-1.203125 0 -1.921875 -0.75q-0.703125 -0.75 -0.703125 -2.09375q0 -1.390625 0.71875 -2.15625q0.71875 -0.78125 1.859375 -0.78125q1.109375 0 1.8125 0.765625q0.703125 0.75 0.703125 2.125q0 0.078125 0 0.234375l-4.125 0q0.046875 0.921875 0.515625 1.40625q0.46875 0.484375 1.15625 0.484375q0.515625 0 0.875 -0.265625q0.359375 -0.28125 0.578125 -0.875zm-3.078125 -1.515625l3.09375 0q-0.0625 -0.6875 -0.359375 -1.046875q-0.453125 -0.53125 -1.15625 -0.53125q-0.640625 0 -1.09375 0.4375q-0.4375 0.421875 -0.484375 1.140625zm7.2702637 2.453125l0.125 0.828125q-0.390625 0.09375 -0.703125 0.09375q-0.5 0 -0.78125 -0.15625q-0.28125 -0.171875 -0.40625 -0.4375q-0.109375 -0.265625 -0.109375 -1.109375l0 -3.171875l-0.6875 0l0 -0.734375l0.6875 0l0 -1.359375l0.9375 -0.5625l0 1.921875l0.9375 0l0 0.734375l-0.9375 0l0 3.234375q0 0.390625 0.046875 0.515625q0.046875 0.109375 0.15625 0.1875q0.109375 0.0625 0.328125 0.0625q0.15625 0 0.40625 -0.046875zm0.9137573 0.84375l0 -7.625l0.9375 0l0 2.734375q0.65625 -0.765625 1.65625 -0.765625q0.609375 0 1.0625 0.25q0.453125 0.234375 0.640625 0.671875q0.203125 0.421875 0.203125 1.234375l0 3.5l-0.9375 0l0 -3.5q0 -0.703125 -0.3125 -1.015625q-0.296875 -0.328125 -0.859375 -0.328125q-0.40625 0 -0.78125 0.21875q-0.359375 0.21875 -0.515625 0.59375q-0.15625 0.359375 -0.15625 1.015625l0 3.015625l-0.9375 0zm9.192139 0l-0.9375 0l0 -5.96875q-0.34375 0.328125 -0.890625 0.65625q-0.546875 0.3125 -0.984375 0.46875l0 -0.90625q0.796875 -0.359375 1.375 -0.890625q0.59375 -0.53125 0.828125 -1.015625l0.609375 0l0 7.65625z" fill-rule="nonzero"/><path fill="#000000" fill-opacity="0.0" d="m516.0079 235.4672l69.60632 0l0 32.314972l-69.60632 0z" fill-rule="evenodd"/><path fill="#ff0000" d="m529.49225 252.92593l0.96875 0.125q-0.234375 0.84375 -0.859375 1.3125q-0.609375 0.46875 -1.578125 0.46875q-1.203125 0 -1.921875 -0.75q-0.703125 -0.75 -0.703125 -2.09375q0 -1.390625 0.71875 -2.15625q0.71875 -0.78125 1.859375 -0.78125q1.109375 0 1.8125 0.765625q0.703125 0.75 0.703125 2.125q0 0.078125 0 0.234375l-4.125 0q0.046875 0.921875 0.515625 1.40625q0.46875 0.484375 1.15625 0.484375q0.515625 0 0.875 -0.265625q0.359375 -0.28125 0.578125 -0.875zm-3.078125 -1.515625l3.09375 0q-0.0625 -0.6875 -0.359375 -1.046875q-0.453125 -0.53125 -1.15625 -0.53125q-0.640625 0 -1.09375 0.4375q-0.4375 0.421875 -0.484375 1.140625zm7.2702637 2.453125l0.125 0.828125q-0.390625 0.09375 -0.703125 0.09375q-0.5 0 -0.78125 -0.15625q-0.28125 -0.171875 -0.40625 -0.4375q-0.109375 -0.265625 -0.109375 -1.109375l0 -3.171875l-0.6875 0l0 -0.734375l0.6875 0l0 -1.359375l0.9375 -0.5625l0 1.921875l0.9375 0l0 0.734375l-0.9375 0l0 3.234375q0 0.390625 0.046875 0.515625q0.046875 0.109375 0.15625 0.1875q0.109375 0.0625 0.328125 0.0625q0.15625 0 0.40625 -0.046875zm0.9137573 0.84375l0 -7.625l0.9375 0l0 2.734375q0.65625 -0.765625 1.65625 -0.765625q0.609375 0 1.0625 0.25q0.453125 0.234375 0.640625 0.671875q0.203125 0.421875 0.203125 1.234375l0 3.5l-0.9375 0l0 -3.5q0 -0.703125 -0.3125 -1.015625q-0.296875 -0.328125 -0.859375 -0.328125q-0.40625 0 -0.78125 0.21875q-0.359375 0.21875 -0.515625 0.59375q-0.15625 0.359375 -0.15625 1.015625l0 3.015625l-0.9375 0zm10.582764 -0.90625l0 0.90625l-5.03125 0q-0.015625 -0.34375 0.109375 -0.65625q0.1875 -0.515625 0.609375 -1.015625q0.421875 -0.5 1.234375 -1.140625q1.234375 -1.03125 1.671875 -1.625q0.4375 -0.59375 0.4375 -1.125q0 -0.5625 -0.40625 -0.9375q-0.390625 -0.390625 -1.03125 -0.390625q-0.671875 0 -1.078125 0.40625q-0.40625 0.40625 -0.40625 1.125l-0.96875 -0.09375q0.09375 -1.078125 0.734375 -1.640625q0.65625 -0.5625 1.734375 -0.5625q1.109375 0 1.75 0.609375q0.640625 0.609375 0.640625 1.5q0 0.46875 -0.1875 0.90625q-0.1875 0.4375 -0.625 0.9375q-0.4375 0.484375 -1.453125 1.328125q-0.828125 0.71875 -1.078125 0.96875q-0.234375 0.25 -0.390625 0.5l3.734375 0z" fill-rule="nonzero"/><path fill="#000000" fill-opacity="0.0" d="m269.23096 108.608925l69.60632 0l0 32.314964l-69.60632 0z" fill-rule="evenodd"/><path fill="#000000" d="m279.1997 127.84892l0 -1.0625l1.0625 0l0 1.0625l-1.0625 0zm5.960663 0l-0.9375 0l0 -5.96875q-0.34375 0.328125 -0.890625 0.65625q-0.546875 0.3125 -0.984375 0.46875l0 -0.90625q0.796875 -0.359375 1.375 -0.890625q0.59375 -0.53125 0.828125 -1.015625l0.609375 0l0 7.65625z" fill-rule="nonzero"/><path fill="#000000" fill-opacity="0.0" d="m525.8268 17.07349l69.60626 0l0 32.31496l-69.60626 0z" fill-rule="evenodd"/><path fill="#000000" d="m535.79553 36.31349l0 -1.0625l1.0625 0l0 1.0625l-1.0625 0zm7.3512573 -0.90625l0 0.90625l-5.03125 0q-0.015625 -0.34375 0.109375 -0.65625q0.1875 -0.515625 0.609375 -1.015625q0.421875 -0.5 1.234375 -1.140625q1.234375 -1.03125 1.671875 -1.6250019q0.4375 -0.59375 0.4375 -1.125q0 -0.5625 -0.40625 -0.9375q-0.390625 -0.390625 -1.03125 -0.390625q-0.671875 0 -1.078125 0.40625q-0.40625 0.40625 -0.40625 1.125l-0.96875 -0.09375q0.09375 -1.078125 0.734375 -1.640625q0.65625 -0.5625 1.734375 -0.5625q1.109375 0 1.75 0.609375q0.640625 0.609375 0.640625 1.5q0 0.46875 -0.1875 0.90625q-0.1875 0.4375019 -0.625 0.9375019q-0.4375 0.484375 -1.453125 1.328125q-0.828125 0.71875 -1.078125 0.96875q-0.234375 0.25 -0.390625 0.5l3.734375 0z" fill-rule="nonzero"/><path fill="#000000" fill-opacity="0.0" d="m566.01575 57.194225l69.60632 0l0 32.31496l-69.60632 0z" fill-rule="evenodd"/><path fill="#000000" d="m575.9845 76.43423l0 -1.0625l1.0625 0l0 1.0625l-1.0625 0zm5.9606323 0l-0.9375 0l0 -5.96875q-0.34375 0.328125 -0.890625 0.65625q-0.546875 0.3125 -0.984375 0.46875l0 -0.90625q0.796875 -0.359375 1.375 -0.890625q0.59375 -0.53125 0.828125 -1.015625l0.609375 0l0 7.65625z" fill-rule="nonzero"/><path fill="#000000" fill-opacity="0.0" d="m569.7638 97.31759l69.60626 0l0 32.314964l-69.60626 0z" fill-rule="evenodd"/><path fill="#000000" d="m579.73254 116.55759l0 -1.0625l1.0625 0l0 1.0625l-1.0625 0zm7.3512573 -0.90625l0 0.90625l-5.03125 0q-0.015625 -0.34375 0.109375 -0.65625q0.1875 -0.515625 0.609375 -1.015625q0.421875 -0.5 1.234375 -1.140625q1.234375 -1.03125 1.671875 -1.625q0.4375 -0.59375 0.4375 -1.125q0 -0.5625 -0.40625 -0.9375q-0.390625 -0.390625 -1.03125 -0.390625q-0.671875 0 -1.078125 0.40625q-0.40625 0.40625 -0.40625 1.125l-0.96875 -0.09375q0.09375 -1.078125 0.734375 -1.640625q0.65625 -0.5625 1.734375 -0.5625q1.109375 0 1.75 0.609375q0.640625 0.609375 0.640625 1.5q0 0.46875 -0.1875 0.90625q-0.1875 0.4375 -0.625 0.9375q-0.4375 0.484375 -1.453125 1.328125q-0.828125 0.71875 -1.078125 0.96875q-0.234375 0.25 -0.390625 0.5l3.734375 0z" fill-rule="nonzero"/><path fill="#000000" fill-opacity="0.0" d="m569.7638 155.22179l69.60626 0l0 32.314957l-69.60626 0z" fill-rule="evenodd"/><path fill="#000000" d="m579.73254 174.46179l0 -1.0625l1.0625 0l0 1.0625l-1.0625 0zm5.9606323 0l-0.9375 0l0 -5.96875q-0.34375 0.328125 -0.890625 0.65625q-0.546875 0.3125 -0.984375 0.46875l0 -0.90625q0.796875 -0.359375 1.375 -0.890625q0.59375 -0.53125 0.828125 -1.015625l0.609375 0l0 7.65625z" fill-rule="nonzero"/><path fill="#000000" fill-opacity="0.0" d="m569.7638 196.99869l69.60626 0l0 32.314957l-69.60626 0z" fill-rule="evenodd"/><path fill="#000000" d="m579.73254 216.2387l0 -1.0625l1.0625 0l0 1.0625l-1.0625 0zm7.3512573 -0.90625l0 0.90625l-5.03125 0q-0.015625 -0.34375 0.109375 -0.65625q0.1875 -0.515625 0.609375 -1.015625q0.421875 -0.5 1.234375 -1.140625q1.234375 -1.03125 1.671875 -1.625q0.4375 -0.59375 0.4375 -1.125q0 -0.5625 -0.40625 -0.9375q-0.390625 -0.390625 -1.03125 -0.390625q-0.671875 0 -1.078125 0.40625q-0.40625 0.40625 -0.40625 1.125l-0.96875 -0.09375q0.09375 -1.078125 0.734375 -1.640625q0.65625 -0.5625 1.734375 -0.5625q1.109375 0 1.75 0.609375q0.640625 0.609375 0.640625 1.5q0 0.46875 -0.1875 0.90625q-0.1875 0.4375 -0.625 0.9375q-0.4375 0.484375 -1.453125 1.328125q-0.828125 0.71875 -1.078125 0.96875q-0.234375 0.25 -0.390625 0.5l3.734375 0z" fill-rule="nonzero"/><path fill="#000000" fill-opacity="0.0" d="m529.2126 217.97113l69.60632 0l0 32.314957l-69.60632 0z" fill-rule="evenodd"/><path fill="#000000" d="m539.18134 237.21114l0 -1.0625l1.0625 0l0 1.0625l-1.0625 0zm7.3512573 -0.90625l0 0.90625l-5.03125 0q-0.015625 -0.34375 0.109375 -0.65625q0.1875 -0.515625 0.609375 -1.015625q0.421875 -0.5 1.234375 -1.140625q1.234375 -1.03125 1.671875 -1.625q0.4375 -0.59375 0.4375 -1.125q0 -0.5625 -0.40625 -0.9375q-0.390625 -0.390625 -1.03125 -0.390625q-0.671875 0 -1.078125 0.40625q-0.40625 0.40625 -0.40625 1.125l-0.96875 -0.09375q0.09375 -1.078125 0.734375 -1.640625q0.65625 -0.5625 1.734375 -0.5625q1.109375 0 1.75 0.609375q0.640625 0.609375 0.640625 1.5q0 0.46875 -0.1875 0.90625q-0.1875 0.4375 -0.625 0.9375q-0.4375 0.484375 -1.453125 1.328125q-0.828125 0.71875 -1.078125 0.96875q-0.234375 0.25 -0.390625 0.5l3.734375 0z" fill-rule="nonzero"/><path fill="#000000" fill-opacity="0.0" d="m269.23096 185.59317l69.60632 0l0 32.314972l-69.60632 0z" fill-rule="evenodd"/><path fill="#000000" d="m279.1997 204.83318l0 -1.0625l1.0625 0l0 1.0625l-1.0625 0zm5.960663 0l-0.9375 0l0 -5.96875q-0.34375 0.328125 -0.890625 0.65625q-0.546875 0.3125 -0.984375 0.46875l0 -0.90625q0.796875 -0.359375 1.375 -0.890625q0.59375 -0.53125 0.828125 -1.015625l0.609375 0l0 7.65625z" fill-rule="nonzero"/><path fill="#000000" fill-opacity="0.0" d="m397.0 50.69029l89.29135 0l0 32.31496l-89.29135 0z" fill-rule="evenodd"/><path fill="#000000" d="m409.96875 69.93029l-0.9375 0l0 -5.96875q-0.34375 0.328125 -0.890625 0.65625q-0.546875 0.3125 -0.984375 0.46875l0 -0.90625q0.796875 -0.359375 1.375 -0.890625q0.59375 -0.53125 0.828125 -1.015625l0.609375 0l0 7.65625zm2.3952637 -3.765625q0 -1.34375 0.28125 -2.171875q0.28125 -0.828125 0.828125 -1.265625q0.546875 -0.453125 1.375 -0.453125q0.625 0 1.078125 0.25q0.46875 0.234375 0.765625 0.703125q0.3125 0.46875 0.484375 1.140625q0.171875 0.671875 0.171875 1.796875q0 1.34375 -0.28125 2.171875q-0.28125 0.828125 -0.828125 1.28125q-0.546875 0.4375 -1.390625 0.4375q-1.09375 0 -1.71875 -0.78125q-0.765625 -0.953125 -0.765625 -3.109375zm0.96875 0q0 1.875 0.4375 2.5q0.4375 0.625 1.078125 0.625q0.65625 0 1.09375 -0.625q0.4375 -0.625 0.4375 -2.5q0 -1.875 -0.4375 -2.5q-0.4375 -0.625 -1.09375 -0.625q-0.640625 0 -1.03125 0.546875q-0.484375 0.703125 -0.484375 2.578125zm5.488983 3.765625l0 -1.0625l1.0625 0l0 1.0625l-1.0625 0zm5.960663 0l-0.9375 0l0 -5.96875q-0.34375 0.328125 -0.890625 0.65625q-0.546875 0.3125 -0.984375 0.46875l0 -0.90625q0.796875 -0.359375 1.375 -0.890625q0.59375 -0.53125 0.828125 -1.015625l0.609375 0l0 7.65625zm2.9264832 0l0 -1.0625l1.0625 0l0 1.0625l-1.0625 0zm5.960663 0l-0.9375 0l0 -5.96875q-0.34375 0.328125 -0.890625 0.65625q-0.546875 0.3125 -0.984375 0.46875l0 -0.90625q0.796875 -0.359375 1.375 -0.890625q0.59375 -0.53125 0.828125 -1.015625l0.609375 0l0 7.65625zm2.9264832 0l0 -1.0625l1.0625 0l0 1.0625l-1.0625 0zm2.4294128 -3.765625q0 -1.34375 0.28125 -2.171875q0.28125 -0.828125 0.828125 -1.265625q0.546875 -0.453125 1.375 -0.453125q0.625 0 1.078125 0.25q0.46875 0.234375 0.765625 0.703125q0.3125 0.46875 0.484375 1.140625q0.171875 0.671875 0.171875 1.796875q0 1.34375 -0.28125 2.171875q-0.28125 0.828125 -0.828125 1.28125q-0.546875 0.4375 -1.390625 0.4375q-1.09375 0 -1.71875 -0.78125q-0.765625 -0.953125 -0.765625 -3.109375zm0.96875 0q0 1.875 0.4375 2.5q0.4375 0.625 1.078125 0.625q0.65625 0 1.09375 -0.625q0.4375 -0.625 0.4375 -2.5q0 -1.875 -0.4375 -2.5q-0.4375 -0.625 -1.09375 -0.625q-0.640625 0 -1.03125 0.546875q-0.484375 0.703125 -0.484375 2.578125zm4.520233 3.890625l2.21875 -7.890625l0.734375 0l-2.203125 7.890625l-0.75 0zm3.4137878 -2.140625l0.9375 -0.125q0.15625 0.796875 0.546875 1.15625q0.390625 0.34375 0.9375 0.34375q0.65625 0 1.109375 -0.453125q0.46875 -0.46875 0.46875 -1.140625q0 -0.640625 -0.421875 -1.0625q-0.421875 -0.421875 -1.078125 -0.421875q-0.265625 0 -0.65625 0.109375l0.109375 -0.828125q0.09375 0.015625 0.140625 0.015625q0.59375 0 1.078125 -0.3125q0.484375 -0.3125 0.484375 -0.96875q0 -0.515625 -0.359375 -0.84375q-0.34375 -0.34375 -0.890625 -0.34375q-0.546875 0 -0.921875 0.34375q-0.359375 0.34375 -0.453125 1.03125l-0.9375 -0.171875q0.171875 -0.9375 0.78125 -1.453125q0.609375 -0.515625 1.5 -0.515625q0.625 0 1.15625 0.265625q0.53125 0.265625 0.796875 0.734375q0.28125 0.453125 0.28125 0.984375q0 0.484375 -0.265625 0.890625q-0.265625 0.40625 -0.78125 0.65625q0.671875 0.15625 1.046875 0.65625q0.375 0.484375 0.375 1.21875q0 1.0 -0.734375 1.703125q-0.71875 0.6875 -1.828125 0.6875q-1.0 0 -1.671875 -0.59375q-0.65625 -0.609375 -0.75 -1.5625zm5.910858 -1.75q0 -1.34375 0.28125 -2.171875q0.28125 -0.828125 0.828125 -1.265625q0.546875 -0.453125 1.375 -0.453125q0.625 0 1.078125 0.25q0.46875 0.234375 0.765625 0.703125q0.3125 0.46875 0.484375 1.140625q0.171875 0.671875 0.171875 1.796875q0 1.34375 -0.28125 2.171875q-0.28125 0.828125 -0.828125 1.28125q-0.546875 0.4375 -1.390625 0.4375q-1.09375 0 -1.71875 -0.78125q-0.765625 -0.953125 -0.765625 -3.109375zm0.96875 0q0 1.875 0.4375 2.5q0.4375 0.625 1.078125 0.625q0.65625 0 1.09375 -0.625q0.4375 -0.625 0.4375 -2.5q0 -1.875 -0.4375 -2.5q-0.4375 -0.625 -1.09375 -0.625q-0.640625 0 -1.03125 0.546875q-0.484375 0.703125 -0.484375 2.578125z" fill-rule="nonzero"/><path fill="#000000" fill-opacity="0.0" d="m585.6142 75.538055l89.29132 0l0 32.314964l-89.29132 0z" fill-rule="evenodd"/><path fill="#000000" d="m598.58295 94.77806l-0.9375 0l0 -5.96875q-0.34375 0.328125 -0.890625 0.65625q-0.546875 0.3125 -0.984375 0.46875l0 -0.90625q0.796875 -0.359375 1.375 -0.890625q0.59375 -0.53125 0.828125 -1.015625l0.609375 0l0 7.65625zm2.9264526 0l0 -1.0625l1.0625 0l0 1.0625l-1.0625 0zm5.9606934 0l-0.9375 0l0 -5.96875q-0.34375 0.328125 -0.890625 0.65625q-0.546875 0.3125 -0.984375 0.46875l0 -0.90625q0.796875 -0.359375 1.375 -0.890625q0.59375 -0.53125 0.828125 -1.015625l0.609375 0l0 7.65625zm2.9264526 0l0 -1.0625l1.0625 0l0 1.0625l-1.0625 0zm5.9606934 0l-0.9375 0l0 -5.96875q-0.34375 0.328125 -0.890625 0.65625q-0.546875 0.3125 -0.984375 0.46875l0 -0.90625q0.796875 -0.359375 1.375 -0.890625q0.59375 -0.53125 0.828125 -1.015625l0.609375 0l0 7.65625zm2.9264526 0l0 -1.0625l1.0625 0l0 1.0625l-1.0625 0zm2.4294434 -3.765625q0 -1.34375 0.28125 -2.171875q0.28125 -0.828125 0.828125 -1.265625q0.546875 -0.453125 1.375 -0.453125q0.625 0 1.078125 0.25q0.46875 0.234375 0.765625 0.703125q0.3125 0.46875 0.484375 1.140625q0.171875 0.671875 0.171875 1.796875q0 1.34375 -0.28125 2.171875q-0.28125 0.828125 -0.828125 1.28125q-0.546875 0.4375 -1.390625 0.4375q-1.09375 0 -1.71875 -0.78125q-0.765625 -0.953125 -0.765625 -3.109375zm0.96875 0q0 1.875 0.4375 2.5q0.4375 0.625 1.078125 0.625q0.65625 0 1.09375 -0.625q0.4375 -0.625 0.4375 -2.5q0 -1.875 -0.4375 -2.5q-0.4375 -0.625 -1.09375 -0.625q-0.640625 0 -1.03125 0.546875q-0.484375 0.703125 -0.484375 2.578125zm4.5202026 3.890625l2.21875 -7.890625l0.734375 0l-2.203125 7.890625l-0.75 0zm3.4138184 -2.140625l0.9375 -0.125q0.15625 0.796875 0.546875 1.15625q0.390625 0.34375 0.9375 0.34375q0.65625 0 1.109375 -0.453125q0.46875 -0.46875 0.46875 -1.140625q0 -0.640625 -0.421875 -1.0625q-0.421875 -0.421875 -1.078125 -0.421875q-0.265625 0 -0.65625 0.109375l0.109375 -0.828125q0.09375 0.015625 0.140625 0.015625q0.59375 0 1.078125 -0.3125q0.484375 -0.3125 0.484375 -0.96875q0 -0.515625 -0.359375 -0.84375q-0.34375 -0.34375 -0.890625 -0.34375q-0.546875 0 -0.921875 0.34375q-0.359375 0.34375 -0.453125 1.03125l-0.9375 -0.171875q0.171875 -0.9375 0.78125 -1.453125q0.609375 -0.515625 1.5 -0.515625q0.625 0 1.15625 0.265625q0.53125 0.265625 0.796875 0.734375q0.28125 0.453125 0.28125 0.984375q0 0.484375 -0.265625 0.890625q-0.265625 0.40625 -0.78125 0.65625q0.671875 0.15625 1.046875 0.65625q0.375 0.484375 0.375 1.21875q0 1.0 -0.734375 1.703125q-0.71875 0.6875 -1.828125 0.6875q-1.0 0 -1.671875 -0.59375q-0.65625 -0.609375 -0.75 -1.5625zm5.9108276 -1.75q0 -1.34375 0.28125 -2.171875q0.28125 -0.828125 0.828125 -1.265625q0.546875 -0.453125 1.375 -0.453125q0.625 0 1.078125 0.25q0.46875 0.234375 0.765625 0.703125q0.3125 0.46875 0.484375 1.140625q0.171875 0.671875 0.171875 1.796875q0 1.34375 -0.28125 2.171875q-0.28125 0.828125 -0.828125 1.28125q-0.546875 0.4375 -1.390625 0.4375q-1.09375 0 -1.71875 -0.78125q-0.765625 -0.953125 -0.765625 -3.109375zm0.96875 0q0 1.875 0.4375 2.5q0.4375 0.625 1.078125 0.625q0.65625 0 1.09375 -0.625q0.4375 -0.625 0.4375 -2.5q0 -1.875 -0.4375 -2.5q-0.4375 -0.625 -1.09375 -0.625q-0.640625 0 -1.03125 0.546875q-0.484375 0.703125 -0.484375 2.578125z" fill-rule="nonzero"/><path fill="#000000" fill-opacity="0.0" d="m585.6142 177.88452l89.29132 0l0 32.314957l-89.29132 0z" fill-rule="evenodd"/><path fill="#000000" d="m599.9736 196.21826l0 0.90625l-5.03125 0q-0.015625 -0.34375 0.109375 -0.65625q0.1875 -0.515625 0.609375 -1.015625q0.421875 -0.5 1.234375 -1.140625q1.234375 -1.03125 1.671875 -1.625q0.4375 -0.59375 0.4375 -1.125q0 -0.5625 -0.40625 -0.9375q-0.390625 -0.390625 -1.03125 -0.390625q-0.671875 0 -1.078125 0.40625q-0.40625 0.40625 -0.40625 1.125l-0.96875 -0.09375q0.09375 -1.078125 0.734375 -1.640625q0.65625 -0.5625 1.734375 -0.5625q1.109375 0 1.75 0.609375q0.640625 0.609375 0.640625 1.5q0 0.46875 -0.1875 0.90625q-0.1875 0.4375 -0.625 0.9375q-0.4375 0.484375 -1.453125 1.328125q-0.828125 0.71875 -1.078125 0.96875q-0.234375 0.25 -0.390625 0.5l3.734375 0zm1.5358276 0.90625l0 -1.0625l1.0625 0l0 1.0625l-1.0625 0zm7.3513184 -0.90625l0 0.90625l-5.03125 0q-0.015625 -0.34375 0.109375 -0.65625q0.1875 -0.515625 0.609375 -1.015625q0.421875 -0.5 1.234375 -1.140625q1.234375 -1.03125 1.671875 -1.625q0.4375 -0.59375 0.4375 -1.125q0 -0.5625 -0.40625 -0.9375q-0.390625 -0.390625 -1.03125 -0.390625q-0.671875 0 -1.078125 0.40625q-0.40625 0.40625 -0.40625 1.125l-0.96875 -0.09375q0.09375 -1.078125 0.734375 -1.640625q0.65625 -0.5625 1.734375 -0.5625q1.109375 0 1.75 0.609375q0.640625 0.609375 0.640625 1.5q0 0.46875 -0.1875 0.90625q-0.1875 0.4375 -0.625 0.9375q-0.4375 0.484375 -1.453125 1.328125q-0.828125 0.71875 -1.078125 0.96875q-0.234375 0.25 -0.390625 0.5l3.734375 0zm1.5358276 0.90625l0 -1.0625l1.0625 0l0 1.0625l-1.0625 0zm7.3513184 -0.90625l0 0.90625l-5.03125 0q-0.015625 -0.34375 0.109375 -0.65625q0.1875 -0.515625 0.609375 -1.015625q0.421875 -0.5 1.234375 -1.140625q1.234375 -1.03125 1.671875 -1.625q0.4375 -0.59375 0.4375 -1.125q0 -0.5625 -0.40625 -0.9375q-0.390625 -0.390625 -1.03125 -0.390625q-0.671875 0 -1.078125 0.40625q-0.40625 0.40625 -0.40625 1.125l-0.96875 -0.09375q0.09375 -1.078125 0.734375 -1.640625q0.65625 -0.5625 1.734375 -0.5625q1.109375 0 1.75 0.609375q0.640625 0.609375 0.640625 1.5q0 0.46875 -0.1875 0.90625q-0.1875 0.4375 -0.625 0.9375q-0.4375 0.484375 -1.453125 1.328125q-0.828125 0.71875 -1.078125 0.96875q-0.234375 0.25 -0.390625 0.5l3.734375 0zm1.5358276 0.90625l0 -1.0625l1.0625 0l0 1.0625l-1.0625 0zm2.4294434 -3.765625q0 -1.34375 0.28125 -2.171875q0.28125 -0.828125 0.828125 -1.265625q0.546875 -0.453125 1.375 -0.453125q0.625 0 1.078125 0.25q0.46875 0.234375 0.765625 0.703125q0.3125 0.46875 0.484375 1.140625q0.171875 0.671875 0.171875 1.796875q0 1.34375 -0.28125 2.171875q-0.28125 0.828125 -0.828125 1.28125q-0.546875 0.4375 -1.390625 0.4375q-1.09375 0 -1.71875 -0.78125q-0.765625 -0.953125 -0.765625 -3.109375zm0.96875 0q0 1.875 0.4375 2.5q0.4375 0.625 1.078125 0.625q0.65625 0 1.09375 -0.625q0.4375 -0.625 0.4375 -2.5q0 -1.875 -0.4375 -2.5q-0.4375 -0.625 -1.09375 -0.625q-0.640625 0 -1.03125 0.546875q-0.484375 0.703125 -0.484375 2.578125zm4.5202026 3.890625l2.21875 -7.890625l0.734375 0l-2.203125 7.890625l-0.75 0zm3.4138184 -2.140625l0.9375 -0.125q0.15625 0.796875 0.546875 1.15625q0.390625 0.34375 0.9375 0.34375q0.65625 0 1.109375 -0.453125q0.46875 -0.46875 0.46875 -1.140625q0 -0.640625 -0.421875 -1.0625q-0.421875 -0.421875 -1.078125 -0.421875q-0.265625 0 -0.65625 0.109375l0.109375 -0.828125q0.09375 0.015625 0.140625 0.015625q0.59375 0 1.078125 -0.3125q0.484375 -0.3125 0.484375 -0.96875q0 -0.515625 -0.359375 -0.84375q-0.34375 -0.34375 -0.890625 -0.34375q-0.546875 0 -0.921875 0.34375q-0.359375 0.34375 -0.453125 1.03125l-0.9375 -0.171875q0.171875 -0.9375 0.78125 -1.453125q0.609375 -0.515625 1.5 -0.515625q0.625 0 1.15625 0.265625q0.53125 0.265625 0.796875 0.734375q0.28125 0.453125 0.28125 0.984375q0 0.484375 -0.265625 0.890625q-0.265625 0.40625 -0.78125 0.65625q0.671875 0.15625 1.046875 0.65625q0.375 0.484375 0.375 1.21875q0 1.0 -0.734375 1.703125q-0.71875 0.6875 -1.828125 0.6875q-1.0 0 -1.671875 -0.59375q-0.65625 -0.609375 -0.75 -1.5625zm5.9108276 -1.75q0 -1.34375 0.28125 -2.171875q0.28125 -0.828125 0.828125 -1.265625q0.546875 -0.453125 1.375 -0.453125q0.625 0 1.078125 0.25q0.46875 0.234375 0.765625 0.703125q0.3125 0.46875 0.484375 1.140625q0.171875 0.671875 0.171875 1.796875q0 1.34375 -0.28125 2.171875q-0.28125 0.828125 -0.828125 1.28125q-0.546875 0.4375 -1.390625 0.4375q-1.09375 0 -1.71875 -0.78125q-0.765625 -0.953125 -0.765625 -3.109375zm0.96875 0q0 1.875 0.4375 2.5q0.4375 0.625 1.078125 0.625q0.65625 0 1.09375 -0.625q0.4375 -0.625 0.4375 -2.5q0 -1.875 -0.4375 -2.5q-0.4375 -0.625 -1.09375 -0.625q-0.640625 0 -1.03125 0.546875q-0.484375 0.703125 -0.484375 2.578125z" fill-rule="nonzero"/><path fill="#000000" fill-opacity="0.0" d="m417.57874 201.86351l89.29135 0l0 32.314972l-89.29135 0z" fill-rule="evenodd"/><path fill="#000000" d="m430.5475 221.10352l-0.9375 0l0 -5.96875q-0.34375 0.328125 -0.890625 0.65625q-0.546875 0.3125 -0.984375 0.46875l0 -0.90625q0.796875 -0.359375 1.375 -0.890625q0.59375 -0.53125 0.828125 -1.015625l0.609375 0l0 7.65625zm2.3952637 -3.765625q0 -1.34375 0.28125 -2.171875q0.28125 -0.828125 0.828125 -1.265625q0.546875 -0.453125 1.375 -0.453125q0.625 0 1.078125 0.25q0.46875 0.234375 0.765625 0.703125q0.3125 0.46875 0.484375 1.140625q0.171875 0.671875 0.171875 1.796875q0 1.34375 -0.28125 2.171875q-0.28125 0.828125 -0.828125 1.28125q-0.546875 0.4375 -1.390625 0.4375q-1.09375 0 -1.71875 -0.78125q-0.765625 -0.953125 -0.765625 -3.109375zm0.96875 0q0 1.875 0.4375 2.5q0.4375 0.625 1.078125 0.625q0.65625 0 1.09375 -0.625q0.4375 -0.625 0.4375 -2.5q0 -1.875 -0.4375 -2.5q-0.4375 -0.625 -1.09375 -0.625q-0.640625 0 -1.03125 0.546875q-0.484375 0.703125 -0.484375 2.578125zm5.488983 3.765625l0 -1.0625l1.0625 0l0 1.0625l-1.0625 0zm7.351288 -0.90625l0 0.90625l-5.03125 0q-0.015625 -0.34375 0.109375 -0.65625q0.1875 -0.515625 0.609375 -1.015625q0.421875 -0.5 1.234375 -1.140625q1.234375 -1.03125 1.671875 -1.625q0.4375 -0.59375 0.4375 -1.125q0 -0.5625 -0.40625 -0.9375q-0.390625 -0.390625 -1.03125 -0.390625q-0.671875 0 -1.078125 0.40625q-0.40625 0.40625 -0.40625 1.125l-0.96875 -0.09375q0.09375 -1.078125 0.734375 -1.640625q0.65625 -0.5625 1.734375 -0.5625q1.109375 0 1.75 0.609375q0.640625 0.609375 0.640625 1.5q0 0.46875 -0.1875 0.90625q-0.1875 0.4375 -0.625 0.9375q-0.4375 0.484375 -1.453125 1.328125q-0.828125 0.71875 -1.078125 0.96875q-0.234375 0.25 -0.390625 0.5l3.734375 0zm1.5358582 0.90625l0 -1.0625l1.0625 0l0 1.0625l-1.0625 0zm7.351288 -0.90625l0 0.90625l-5.03125 0q-0.015625 -0.34375 0.109375 -0.65625q0.1875 -0.515625 0.609375 -1.015625q0.421875 -0.5 1.234375 -1.140625q1.234375 -1.03125 1.671875 -1.625q0.4375 -0.59375 0.4375 -1.125q0 -0.5625 -0.40625 -0.9375q-0.390625 -0.390625 -1.03125 -0.390625q-0.671875 0 -1.078125 0.40625q-0.40625 0.40625 -0.40625 1.125l-0.96875 -0.09375q0.09375 -1.078125 0.734375 -1.640625q0.65625 -0.5625 1.734375 -0.5625q1.109375 0 1.75 0.609375q0.640625 0.609375 0.640625 1.5q0 0.46875 -0.1875 0.90625q-0.1875 0.4375 -0.625 0.9375q-0.4375 0.484375 -1.453125 1.328125q-0.828125 0.71875 -1.078125 0.96875q-0.234375 0.25 -0.390625 0.5l3.734375 0zm1.5358582 0.90625l0 -1.0625l1.0625 0l0 1.0625l-1.0625 0zm2.4294128 -3.765625q0 -1.34375 0.28125 -2.171875q0.28125 -0.828125 0.828125 -1.265625q0.546875 -0.453125 1.375 -0.453125q0.625 0 1.078125 0.25q0.46875 0.234375 0.765625 0.703125q0.3125 0.46875 0.484375 1.140625q0.171875 0.671875 0.171875 1.796875q0 1.34375 -0.28125 2.171875q-0.28125 0.828125 -0.828125 1.28125q-0.546875 0.4375 -1.390625 0.4375q-1.09375 0 -1.71875 -0.78125q-0.765625 -0.953125 -0.765625 -3.109375zm0.96875 0q0 1.875 0.4375 2.5q0.4375 0.625 1.078125 0.625q0.65625 0 1.09375 -0.625q0.4375 -0.625 0.4375 -2.5q0 -1.875 -0.4375 -2.5q-0.4375 -0.625 -1.09375 -0.625q-0.640625 0 -1.03125 0.546875q-0.484375 0.703125 -0.484375 2.578125zm4.520233 3.890625l2.21875 -7.890625l0.734375 0l-2.203125 7.890625l-0.75 0zm3.4137878 -2.140625l0.9375 -0.125q0.15625 0.796875 0.546875 1.15625q0.390625 0.34375 0.9375 0.34375q0.65625 0 1.109375 -0.453125q0.46875 -0.46875 0.46875 -1.140625q0 -0.640625 -0.421875 -1.0625q-0.421875 -0.421875 -1.078125 -0.421875q-0.265625 0 -0.65625 0.109375l0.109375 -0.828125q0.09375 0.015625 0.140625 0.015625q0.59375 0 1.078125 -0.3125q0.484375 -0.3125 0.484375 -0.96875q0 -0.515625 -0.359375 -0.84375q-0.34375 -0.34375 -0.890625 -0.34375q-0.546875 0 -0.921875 0.34375q-0.359375 0.34375 -0.453125 1.03125l-0.9375 -0.171875q0.171875 -0.9375 0.78125 -1.453125q0.609375 -0.515625 1.5 -0.515625q0.625 0 1.15625 0.265625q0.53125 0.265625 0.796875 0.734375q0.28125 0.453125 0.28125 0.984375q0 0.484375 -0.265625 0.890625q-0.265625 0.40625 -0.78125 0.65625q0.671875 0.15625 1.046875 0.65625q0.375 0.484375 0.375 1.21875q0 1.0 -0.734375 1.703125q-0.71875 0.6875 -1.828125 0.6875q-1.0 0 -1.671875 -0.59375q-0.65625 -0.609375 -0.75 -1.5625zm5.910858 -1.75q0 -1.34375 0.28125 -2.171875q0.28125 -0.828125 0.828125 -1.265625q0.546875 -0.453125 1.375 -0.453125q0.625 0 1.078125 0.25q0.46875 0.234375 0.765625 0.703125q0.3125 0.46875 0.484375 1.140625q0.171875 0.671875 0.171875 1.796875q0 1.34375 -0.28125 2.171875q-0.28125 0.828125 -0.828125 1.28125q-0.546875 0.4375 -1.390625 0.4375q-1.09375 0 -1.71875 -0.78125q-0.765625 -0.953125 -0.765625 -3.109375zm0.96875 0q0 1.875 0.4375 2.5q0.4375 0.625 1.078125 0.625q0.65625 0 1.09375 -0.625q0.4375 -0.625 0.4375 -2.5q0 -1.875 -0.4375 -2.5q-0.4375 -0.625 -1.09375 -0.625q-0.640625 0 -1.03125 0.546875q-0.484375 0.703125 -0.484375 2.578125z" fill-rule="nonzero"/><path fill="#000000" fill-opacity="0.0" d="m137.03937 165.2546l12.627396 0l0 -24.314957l12.632446 0" fill-rule="evenodd"/><path stroke="#000000" stroke-width="1.0" stroke-linejoin="round" stroke-linecap="butt" d="m137.03937 165.2546l12.627396 0l0 -24.314957l12.632446 0" fill-rule="evenodd"/><path fill="#000000" fill-opacity="0.0" d="m137.03937 165.2546l12.627396 0l0 40.566925l12.632446 0" fill-rule="evenodd"/><path stroke="#000000" stroke-width="1.0" stroke-linejoin="round" stroke-linecap="butt" d="m137.03937 165.2546l12.627396 0l0 40.566925l12.632446 0" fill-rule="evenodd"/></g></svg>